<svg xmlns="http://www.w3.org/2000/svg" xmlns:xlink="http://www.w3.org/1999/xlink" width="162" height="30" viewBox="0 0 162 30"><defs><path id="a" d="M3.341 3.286V.043H.103v3.243h3.238z"/></defs><g fill="none" fill-rule="evenodd"><path fill="#555" d="M54.456 21.936c-.047.19-.112.34-.195.454a.759.759 0 0 1-.372.26 2.515 2.515 0 0 1-.638.118c-.26.02-.591.03-.993.03-.449 0-.81-.01-1.081-.03a2.4 2.4 0 0 1-.644-.118.66.66 0 0 1-.343-.26 1.409 1.409 0 0 1-.165-.454l-2.446-9.678h-.024l-2.316 9.678a1.4 1.4 0 0 1-.166.442.682.682 0 0 1-.336.266 2.092 2.092 0 0 1-.627.124c-.264.02-.612.03-1.045.03-.457 0-.821-.01-1.093-.03a2.402 2.402 0 0 1-.645-.118.657.657 0 0 1-.342-.26 1.609 1.609 0 0 1-.178-.454L37.333 8.611a3.686 3.686 0 0 1-.118-.667c-.008-.161.038-.285.136-.372.099-.086.26-.14.485-.16.224-.019.538-.028.94-.028.37 0 .663.005.88.017.216.012.38.04.49.083a.39.39 0 0 1 .224.189c.04.082.071.198.095.348l2.682 11.696h.012l2.789-11.613c.031-.15.073-.272.124-.367a.501.501 0 0 1 .26-.218c.122-.051.29-.087.502-.106.213-.02.497-.03.851-.03.378 0 .68.008.904.024.225.016.397.05.52.1a.54.54 0 0 1 .266.219c.055.094.098.22.13.378l2.883 11.613h.024l2.682-11.66c.024-.126.055-.235.095-.326a.426.426 0 0 1 .224-.212 1.49 1.49 0 0 1 .473-.106c.205-.02.492-.03.862-.03.347 0 .617.01.81.03.193.02.333.073.42.16.086.086.124.213.112.383-.012.17-.053.4-.124.69l-3.51 13.29zm14.962.389a.323.323 0 0 1-.071.207.52.52 0 0 1-.236.148c-.11.039-.262.068-.455.088-.193.02-.432.03-.715.03-.292 0-.534-.01-.727-.03a2.015 2.015 0 0 1-.455-.088.517.517 0 0 1-.236-.148.321.321 0 0 1-.071-.207v-6.007c0-.512-.038-.913-.112-1.204a2.381 2.381 0 0 0-.326-.75 1.447 1.447 0 0 0-.549-.483 1.715 1.715 0 0 0-.786-.171c-.378 0-.76.137-1.146.413-.386.275-.788.676-1.205 1.203v7a.321.321 0 0 1-.071.206.52.52 0 0 1-.243.148 2.144 2.144 0 0 1-.454.088c-.19.02-.43.03-.721.03-.292 0-.532-.01-.721-.03a2.106 2.106 0 0 1-.455-.088.52.52 0 0 1-.242-.148.321.321 0 0 1-.071-.207V7.885c0-.078.023-.149.07-.212a.529.529 0 0 1 .243-.16c.114-.042.266-.076.455-.1.189-.023.43-.035.72-.035.292 0 .533.012.722.036.189.023.34.057.454.1a.529.529 0 0 1 .243.16.345.345 0 0 1 .071.212v4.738c.512-.504 1.034-.88 1.565-1.128a3.888 3.888 0 0 1 1.66-.371c.718 0 1.322.118 1.815.354.492.236.89.558 1.193.968.303.409.522.887.656 1.434.134.547.201 1.21.201 1.988v6.456zm11.889-5.57c0 .362-.08.63-.242.802-.162.173-.384.26-.667.26H73.98c0 .448.053.855.16 1.221.106.366.275.677.508.933.232.256.531.45.898.584.366.134.805.2 1.317.2.52 0 .977-.036 1.371-.111a9.148 9.148 0 0 0 1.022-.248c.288-.09.526-.173.715-.248.19-.075.343-.112.461-.112.07 0 .13.014.177.041a.308.308 0 0 1 .118.148c.032.07.054.17.065.3a7.1 7.1 0 0 1 .006.932c-.008.123-.02.227-.036.314a.756.756 0 0 1-.07.218.833.833 0 0 1-.124.171c-.051.055-.191.13-.42.224a6.62 6.62 0 0 1-.874.278c-.355.09-.76.169-1.217.236-.457.067-.946.1-1.466.1-.937 0-1.758-.118-2.463-.354-.705-.236-1.295-.594-1.767-1.074-.472-.48-.825-1.086-1.058-1.817-.232-.732-.348-1.59-.348-2.573 0-.937.122-1.78.366-2.532.244-.751.599-1.388 1.064-1.912a4.57 4.57 0 0 1 1.696-1.198c.665-.276 1.415-.413 2.25-.413.883 0 1.637.13 2.263.39.627.259 1.14.619 1.543 1.079.401.46.697 1.006.886 1.635.189.63.283 1.314.283 2.053v.473zm-2.883-.85c.024-.834-.144-1.489-.502-1.965-.359-.476-.912-.714-1.66-.714-.379 0-.707.07-.987.212s-.512.332-.697.572a2.61 2.61 0 0 0-.426.85 4.238 4.238 0 0 0-.171 1.045h4.443zm14.631 6.42a.321.321 0 0 1-.07.207.52.52 0 0 1-.237.148 2.02 2.02 0 0 1-.455.088c-.193.02-.431.03-.715.03-.291 0-.534-.01-.727-.03a2.012 2.012 0 0 1-.455-.088.524.524 0 0 1-.236-.148.324.324 0 0 1-.07-.207v-6.007c0-.512-.038-.913-.113-1.204a2.373 2.373 0 0 0-.325-.75 1.45 1.45 0 0 0-.55-.483 1.714 1.714 0 0 0-.785-.171c-.379 0-.761.137-1.147.413-.386.275-.788.676-1.205 1.203v7a.323.323 0 0 1-.07.206.524.524 0 0 1-.243.148 2.168 2.168 0 0 1-.455.088c-.189.02-.43.03-.721.03a7.2 7.2 0 0 1-.72-.03 2.11 2.11 0 0 1-.456-.088.52.52 0 0 1-.242-.148.321.321 0 0 1-.071-.207V11.797c0-.078.02-.147.06-.206a.433.433 0 0 1 .212-.147c.102-.04.234-.07.396-.089.161-.02.364-.03.608-.03.252 0 .461.01.626.03.166.02.294.05.385.089.09.039.155.088.195.147a.366.366 0 0 1 .059.206v1.216c.583-.63 1.176-1.101 1.778-1.416a4.022 4.022 0 0 1 1.885-.472c.717 0 1.321.118 1.814.354.492.236.89.557 1.193.962a3.9 3.9 0 0 1 .656 1.422c.134.543.201 1.196.201 1.96v6.502zm9.006-.023c0 .079-.025.15-.076.212a.536.536 0 0 1-.254.154c-.12.04-.276.07-.473.094a6.68 6.68 0 0 1-.757.036c-.3 0-.55-.012-.75-.036a2.46 2.46 0 0 1-.479-.094.535.535 0 0 1-.254-.154.326.326 0 0 1-.077-.212V7.879c0-.078.026-.15.077-.213a.544.544 0 0 1 .26-.153c.122-.04.282-.07.479-.094.197-.024.445-.036.744-.036.307 0 .56.012.757.036.197.023.354.055.473.094.118.04.202.09.254.153a.33.33 0 0 1 .076.213v14.423zm22.218-.366a1.32 1.32 0 0 1-.195.454.76.76 0 0 1-.373.26 2.513 2.513 0 0 1-.638.118c-.26.02-.59.03-.992.03-.45 0-.81-.01-1.081-.03a2.4 2.4 0 0 1-.644-.118.658.658 0 0 1-.343-.26 1.416 1.416 0 0 1-.165-.454l-2.447-9.678h-.023l-2.316 9.678c-.04.181-.095.329-.166.442a.683.683 0 0 1-.336.266 2.09 2.09 0 0 1-.627.124c-.264.02-.612.03-1.046.03-.456 0-.82-.01-1.093-.03a2.4 2.4 0 0 1-.644-.118.657.657 0 0 1-.342-.26 1.6 1.6 0 0 1-.178-.454l-3.474-13.325a3.68 3.68 0 0 1-.118-.667c-.008-.161.037-.285.136-.372.098-.086.26-.14.485-.16.224-.019.537-.028.939-.028.37 0 .663.005.88.017.217.012.38.04.49.083a.39.39 0 0 1 .225.189c.04.082.071.198.095.348l2.682 11.696h.012l2.789-11.613c.031-.15.073-.272.124-.367a.503.503 0 0 1 .26-.218 1.74 1.74 0 0 1 .502-.106c.213-.02.496-.03.85-.03.379 0 .68.008.905.024.224.016.398.05.52.1a.54.54 0 0 1 .266.219c.055.094.098.22.13.378l2.883 11.613h.023l2.683-11.66a1.53 1.53 0 0 1 .094-.326.428.428 0 0 1 .225-.212 1.49 1.49 0 0 1 .473-.106c.204-.02.492-.03.862-.03.347 0 .617.01.81.03.193.02.332.073.42.16.086.086.123.213.111.383-.011.17-.052.4-.123.69l-3.51 13.29zm14.405-4.981c0 .897-.118 1.716-.354 2.455a5.184 5.184 0 0 1-1.076 1.912 4.772 4.772 0 0 1-1.807 1.24c-.725.29-1.572.436-2.54.436-.938 0-1.754-.13-2.447-.39-.693-.259-1.268-.636-1.726-1.132-.456-.496-.795-1.106-1.015-1.83-.221-.724-.332-1.55-.332-2.478 0-.897.121-1.717.361-2.461.24-.744.6-1.381 1.081-1.912a4.825 4.825 0 0 1 1.802-1.234c.721-.29 1.566-.436 2.535-.436.945 0 1.765.128 2.458.384.693.255 1.266.63 1.72 1.126.452.496.79 1.106 1.01 1.83.22.724.33 1.554.33 2.49m-3.06.118a7.68 7.68 0 0 0-.124-1.433 3.365 3.365 0 0 0-.42-1.14 2.097 2.097 0 0 0-.786-.755c-.327-.181-.738-.271-1.234-.271-.441 0-.827.08-1.158.242a2.076 2.076 0 0 0-.816.708 3.384 3.384 0 0 0-.478 1.121c-.107.437-.16.934-.16 1.493 0 .52.044.997.13 1.434.087.437.226.816.42 1.139a2 2 0 0 0 .785.75c.331.177.74.265 1.23.265.449 0 .839-.08 1.17-.242a2.09 2.09 0 0 0 .814-.703 3.23 3.23 0 0 0 .473-1.115c.103-.436.154-.934.154-1.493m11.416-4.296c0 .283-.007.516-.023.697a2.091 2.091 0 0 1-.07.425.415.415 0 0 1-.125.212.308.308 0 0 1-.195.059.645.645 0 0 1-.212-.041 10.26 10.26 0 0 0-.267-.09 4.235 4.235 0 0 0-.324-.087 1.712 1.712 0 0 0-.39-.042c-.166 0-.331.034-.497.1a2.104 2.104 0 0 0-.514.313c-.177.142-.362.33-.555.567-.193.236-.4.527-.62.873v6.563a.321.321 0 0 1-.071.206.521.521 0 0 1-.242.147c-.115.04-.267.07-.456.09a7.417 7.417 0 0 1-.72.029c-.292 0-.532-.01-.72-.03-.19-.02-.342-.05-.456-.089a.521.521 0 0 1-.243-.147.321.321 0 0 1-.07-.206V11.798c0-.08.02-.148.059-.207a.435.435 0 0 1 .213-.148c.102-.039.234-.068.395-.088.162-.02.365-.03.609-.03.252 0 .46.01.626.03.166.02.294.05.385.088.09.04.155.09.194.148a.366.366 0 0 1 .06.207v1.31c.275-.394.535-.718.78-.974.244-.256.476-.459.696-.608.22-.15.442-.254.662-.313.22-.059.441-.088.662-.088a3.295 3.295 0 0 1 .697.077c.126.027.237.058.33.094a.65.65 0 0 1 .208.112c.043.04.075.083.094.13.02.047.038.112.053.195.016.082.028.206.036.371.008.165.012.39.012.673m11.265 9.56a.34.34 0 0 1-.065.207.451.451 0 0 1-.237.142 2.5 2.5 0 0 1-.467.082c-.196.02-.452.03-.768.03-.323 0-.584-.008-.785-.024a2.726 2.726 0 0 1-.497-.077.739.739 0 0 1-.301-.147.889.889 0 0 1-.19-.248l-3.509-5.547v5.57a.32.32 0 0 1-.071.207.515.515 0 0 1-.242.147c-.114.04-.266.07-.455.09-.189.018-.43.028-.72.028-.292 0-.532-.01-.722-.029a2.088 2.088 0 0 1-.454-.089.52.52 0 0 1-.243-.147.32.32 0 0 1-.07-.206V7.886c0-.079.023-.15.07-.213a.532.532 0 0 1 .243-.16c.114-.042.265-.076.454-.1.19-.023.43-.035.721-.035.292 0 .532.012.721.036.19.023.34.057.455.1a.528.528 0 0 1 .242.159.346.346 0 0 1 .071.213v8.16l3.12-4.19c.063-.094.134-.177.212-.247a.817.817 0 0 1 .314-.166c.13-.039.29-.068.484-.088.193-.02.44-.03.739-.03.291 0 .537.01.738.03.201.02.362.05.485.088.122.04.207.089.254.148a.338.338 0 0 1 .07.218.94.94 0 0 1-.088.378 1.975 1.975 0 0 1-.266.425l-3.084 3.494 3.569 5.511c.094.158.163.293.207.408a.891.891 0 0 1 .065.312"/><path fill="#51A33D" d="M8.734 20.645h10.92c.458 0 .83-.367.83-.82v-.941a.825.825 0 0 0-.83-.82H8.733a.825.825 0 0 0-.83.82v.942c0 .452.37.82.83.82m2.58-4.517h10.92c.459 0 .83-.367.83-.82v-.941a.825.825 0 0 0-.83-.82h-10.92a.825.825 0 0 0-.83.82v.942c0 .452.371.819.83.819m-2.58-4.516h10.92c.458 0 .83-.367.83-.82v-.941a.825.825 0 0 0-.83-.82H8.733a.825.825 0 0 0-.83.82v.942c0 .452.37.819.83.819M15 0C6.716 0 0 6.715 0 15c0 8.284 6.716 15 15 15 8.284 0 15-6.716 15-15 0-8.285-6.716-15-15-15m0 27.42C8.141 27.42 2.58 21.859 2.58 15S8.142 2.58 15 2.58 27.42 8.142 27.42 15 21.858 27.42 15 27.42"/><g transform="translate(158.387 8.71)"><mask id="b" fill="#fff"><use xlink:href="#a"/></mask><path fill="#555" d="M2.027 1.046C1.947 1 1.82.979 1.647.979h-.268v.645h.283a.847.847 0 0 0 .3-.04c.122-.048.183-.141.183-.278 0-.13-.04-.216-.118-.26zm-.34-.28c.221 0 .384.02.486.063.184.077.277.227.277.451 0 .16-.058.276-.174.351a.675.675 0 0 1-.257.086c.139.022.24.08.305.175a.489.489 0 0 1 .097.275v.13c0 .042.001.086.004.133a.29.29 0 0 0 .016.092l.01.022h-.293l-.004-.017-.005-.02-.006-.057v-.141c0-.205-.056-.341-.168-.407-.067-.038-.183-.057-.35-.057H1.38v.7h-.314V.764h.623zM.735.674c-.27.272-.406.6-.406.986 0 .389.135.72.404.994.271.273.6.41.986.41.388 0 .717-.137.987-.41a1.36 1.36 0 0 0 .406-.994c0-.385-.135-.714-.406-.986a1.338 1.338 0 0 0-.987-.411 1.34 1.34 0 0 0-.984.41zm2.133 2.134a1.56 1.56 0 0 1-1.149.477c-.448 0-.83-.159-1.145-.477-.314-.316-.47-.7-.47-1.15 0-.446.158-.827.475-1.143a1.553 1.553 0 0 1 1.14-.473c.45 0 .832.158 1.149.473.316.315.474.696.474 1.143 0 .45-.158.832-.474 1.15z" mask="url(#b)"/></g></g></svg>
