<?xml version="1.0" encoding="UTF-8"?>
<svg width="179px" height="155px" viewBox="0 0 179 155" version="1.1" xmlns="http://www.w3.org/2000/svg" xmlns:xlink="http://www.w3.org/1999/xlink">
    <title>Messaging Graphic</title>
    <g id="Homepage" stroke="none" stroke-width="1" fill="none" fill-rule="evenodd">
        <g id="W---Home" transform="translate(-1051.000000, -835.000000)">
            <g id="Highlight-" transform="translate(105.000000, 723.000000)">
                <g id="Group-5" transform="translate(840.000000, 0.000000)">
                    <g id="Messaging-Graphic" transform="translate(107.000000, 113.000000)">
                        <path d="M163.249413,78.7709758 C163.249413,42.3055316 133.688363,12.7448475 97.223285,12.7448475 C60.7582067,12.7448475 31.1971568,42.3055316 31.1971568,78.7709758 C31.1971568,115.23642 60.7582067,144.797104 97.223285,144.797104 C133.688363,144.797104 163.249413,115.23642 163.249413,78.7709758 Z" id="Stroke-1" stroke="#DDDDDD" stroke-width="2" stroke-linecap="round" stroke-linejoin="round" stroke-dasharray="10.91753943798944,5.094803015013489,0.7279334951749606,5.094803015013489"></path>
                        <g id="Group-70" transform="translate(69.232669, 0.097387)">
                            <polygon id="Fill-3" fill="#CCCCCC" points="5.48704561 35.2118622 25.9716062 35.2118622 25.9716062 13.0889026 5.48704561 13.0889026"></polygon>
                            <polygon id="Stroke-5" stroke="#666666" stroke-width="2.19477435" stroke-linecap="round" stroke-linejoin="round" points="5.48704561 35.2118622 25.9716062 35.2118622 25.9716062 13.0889026 5.48704561 13.0889026"></polygon>
                            <path d="M25.9716062,4.75534442 C25.9716062,2.12893112 23.8426751,-1.38555833e-13 21.2162618,-1.38555833e-13 C18.5898485,-1.38555833e-13 16.4609173,2.12893112 16.4609173,4.75534442 C16.4609173,7.38175772 18.5898485,9.51068884 21.2162618,9.51068884 C23.8426751,9.51068884 25.9716062,7.38175772 25.9716062,4.75534442" id="Fill-6" fill="#CCCCCC"></path>
                            <path d="M25.9716062,4.75534442 C25.9716062,2.12893112 23.8426751,-1.38555833e-13 21.2162618,-1.38555833e-13 C18.5898485,-1.38555833e-13 16.4609173,2.12893112 16.4609173,4.75534442 C16.4609173,7.38175772 18.5898485,9.51068884 21.2162618,9.51068884 C23.8426751,9.51068884 25.9716062,7.38175772 25.9716062,4.75534442 Z" id="Stroke-7" stroke="#666666" stroke-width="2.19477435" stroke-linecap="round" stroke-linejoin="round"></path>
                            <path d="M25.9716062,13.1686461 C25.9716062,7.511981 21.385991,2.9263658 15.7293259,2.9263658 C10.0726608,2.9263658 5.48704561,7.511981 5.48704561,13.1686461 C5.48704561,18.8253112 10.0726608,23.4109264 15.7293259,23.4109264 C21.385991,23.4109264 25.9716062,18.8253112 25.9716062,13.1686461" id="Fill-8" fill="#FFFFFF"></path>
                            <path d="M0.000109738717,37.9612926 C4.56121663,40.7907226 9.94975344,42.4324138 15.7282285,42.4324138 C21.5074352,42.4324138 26.8970694,40.7903568 31.458542,37.9598295 C30.7152451,29.8314827 24.0036252,23.4498105 15.8017534,23.4112199 C7.5497677,23.371896 0.749259382,29.7685658 0.000109738717,37.9612926" id="Fill-9" fill="#EEEEEE"></path>
                            <path d="M31.458542,37.959866 C30.9475254,32.3719705 27.6154922,27.6089444 22.9175777,25.165429" id="Stroke-10" stroke="#666666" stroke-width="2.19477435" stroke-linecap="round" stroke-linejoin="round"></path>
                            <path d="M8.54352494,25.1634537 C3.84890261,27.6044086 0.512114014,32.3637767 -1.50990331e-14,37.9611829" id="Stroke-11" stroke="#666666" stroke-width="2.19477435" stroke-linecap="round" stroke-linejoin="round"></path>
                            <path d="M25.9716062,13.1686461 C25.9716062,7.511981 21.385991,2.9263658 15.7293259,2.9263658 C10.0726608,2.9263658 5.48704561,7.511981 5.48704561,13.1686461 C5.48704561,18.8253112 10.0726608,23.4109264 15.7293259,23.4109264 C21.385991,23.4109264 25.9716062,18.8253112 25.9716062,13.1686461 Z" id="Stroke-12" stroke="#666666" stroke-width="2.19477435" stroke-linecap="round" stroke-linejoin="round"></path>
                            <path d="M6.28341948,9.20349359 C7.84024608,10.1585862 9.67178527,10.710572 11.6324504,10.710572 C15.8829967,10.710572 19.5285169,8.12110404 21.0783933,4.43351734 C19.521201,3.47805891 17.6900276,2.92643895 15.7293625,2.92643895 C11.4788162,2.92643895 7.83329596,5.51590689 6.28341948,9.20349359" id="Fill-13" fill="#CCCCCC"></path>
                            <path d="M6.28341948,9.20349359 C7.84024608,10.1585862 9.67178527,10.710572 11.6324504,10.710572 C15.8829967,10.710572 19.5285169,8.12110404 21.0783933,4.43351734 C19.521201,3.47805891 17.6900276,2.92643895 15.7293625,2.92643895 C11.4788162,2.92643895 7.83329596,5.51590689 6.28341948,9.20349359 Z" id="Stroke-14" stroke="#666666" stroke-width="2.19477435" stroke-linecap="round" stroke-linejoin="round"></path>
                            <path d="M10.8762043,14.9986855 C11.4578195,17.1082295 13.3665416,18.6555454 15.6315487,18.6555454 C17.8965558,18.6555454 19.8052779,17.1078637 20.3868931,14.9975881" id="Stroke-15" stroke="#666666" stroke-width="2.19477435" stroke-linecap="round" stroke-linejoin="round"></path>
                        </g>
                        <g id="Group-69" transform="translate(0.097387, 20.216152)">
                            <path d="M4.38954869,-2.13162821e-14 L67.3064133,-2.13162821e-14 L63.6484561,5.12114014 L63.6484561,25.9714964 C63.6484561,28.3956247 61.6830356,30.3610451 59.2589074,30.3610451 L4.38954869,30.3610451 C1.96542043,30.3610451 5.68434189e-14,28.3956247 5.68434189e-14,25.9714964 L5.68434189e-14,4.38954869 C5.68434189e-14,1.96542043 1.96542043,-2.13162821e-14 4.38954869,-2.13162821e-14" id="Fill-16" fill="#FFFFFF"></path>
                            <path d="M4.38954869,-2.13162821e-14 L67.3064133,-2.13162821e-14 L63.6484561,5.12114014 L63.6484561,25.9714964 C63.6484561,28.3956247 61.6830356,30.3610451 59.2589074,30.3610451 L4.38954869,30.3610451 C1.96542043,30.3610451 5.68434189e-14,28.3956247 5.68434189e-14,25.9714964 L5.68434189e-14,4.38954869 C5.68434189e-14,1.96542043 1.96542043,-2.13162821e-14 4.38954869,-2.13162821e-14 Z" id="Stroke-17" stroke="#7FDB65" stroke-width="2" stroke-linecap="round" stroke-linejoin="round"></path>
                            <path d="M8.91663658,12.1766447 C8.55376722,12.1766447 8.21101663,12.1137278 7.88948219,11.9878941 C7.56758195,11.8620603 7.28518765,11.6762361 7.04229929,11.4304214 C6.79941093,11.1846067 6.60773397,10.8788014 6.46726841,10.5130057 C6.32680285,10.14721 6.25657007,9.72435012 6.25657007,9.24442613 C6.25657007,8.76998907 6.32972922,8.34749501 6.47604751,7.97584656 C6.6223658,7.6041981 6.8184323,7.28997957 7.06424703,7.03209359 C7.31006176,6.7745734 7.59684561,6.57850689 7.92459857,6.44389406 C8.25235154,6.30928124 8.59766271,6.24197482 8.96053207,6.24197482 C9.32925416,6.24197482 9.65993349,6.31623135 9.95257007,6.46584181 C10.2452067,6.61508646 10.488095,6.78920523 10.6812352,6.9878323 L9.99646556,7.81343325 C9.85014727,7.67882043 9.69651306,7.56908171 9.53556295,7.4842171 C9.37461283,7.39935249 9.19171496,7.35692019 8.98686936,7.35692019 C8.79372922,7.35692019 8.61083135,7.39935249 8.43817577,7.4842171 C8.26552019,7.56908171 8.11627553,7.69052589 7.99044181,7.84854964 C7.86460808,8.0065734 7.76511164,8.19971354 7.69195249,8.42797007 C7.61879335,8.6562266 7.58221378,8.91374679 7.58221378,9.20053064 C7.58221378,9.79165653 7.70804751,10.249267 7.95971496,10.5744594 C8.21101663,10.899286 8.54791449,11.0616993 8.96931116,11.0616993 C9.20342043,11.0616993 9.41265558,11.0104879 9.59701663,10.9080651 C9.78137767,10.8056423 9.94379097,10.6783454 10.0842565,10.5261743 L10.7690261,11.3338513 C10.2891021,11.8953477 9.67163895,12.1766447 8.91663658,12.1766447" id="Fill-18" fill="#7FDB65"></path>
                            <path d="M13.0689667,11.1757178 C13.215285,11.1757178 13.3411188,11.1435278 13.4464679,11.0791477 C13.5518171,11.0151335 13.663019,10.9244162 13.7800736,10.8069957 L13.7800736,10.0432143 C13.3235606,10.1075943 13.0075131,10.201238 12.8322969,10.3241454 C12.6563492,10.4470527 12.5685582,10.593371 12.5685582,10.7631002 C12.5685582,10.9035658 12.6139169,11.0074518 12.7046342,11.075124 C12.7953515,11.1420646 12.9167957,11.1757178 13.0689667,11.1757178 M12.6300119,12.1765349 C12.431019,12.1765349 12.2510475,12.1428817 12.0900974,12.0755753 C11.9291473,12.0082689 11.7930713,11.914991 11.6818694,11.7946442 C11.5706675,11.6746632 11.4843397,11.5356608 11.422886,11.3776371 C11.3614323,11.2196133 11.3307055,11.0469577 11.3307055,10.8600361 C11.3307055,10.403523 11.5238456,10.0461406 11.9101259,9.78862043 C12.296772,9.53110024 12.9197221,9.35844466 13.7800736,9.27065368 C13.7683682,9.07787933 13.711304,8.92424513 13.609247,8.80975107 C13.5064584,8.6959886 13.3356318,8.63855867 13.095304,8.63855867 C12.9080166,8.63855867 12.7221924,8.67367506 12.5378314,8.74427363 C12.3534703,8.81414062 12.1559406,8.91107648 11.9456081,9.03398385 L11.4799501,8.18204561 C11.7608812,8.01268219 12.0553468,7.87514299 12.3622494,7.76942803 C12.6695178,7.66407886 12.9958076,7.61140428 13.3411188,7.61140428 C13.902981,7.61140428 14.3316936,7.77089121 14.6272565,8.08986508 C14.9228195,8.40920475 15.0709667,8.90522375 15.0709667,9.57792209 L15.0709667,12.0711857 L14.0171093,12.0711857 L13.9296841,11.6238176 L13.8942019,11.6238176 C13.7069145,11.7876941 13.510848,11.9204779 13.3060024,12.0229007 C13.1011568,12.1253235 12.8761924,12.1765349 12.6300119,12.1765349" id="Fill-19" fill="#7FDB65"></path>
                            <path d="M16.158953,12.0712589 L16.158953,7.7168266 L17.2128105,7.7168266 L17.3002356,8.26990974 L17.3357178,8.26990974 C17.5230052,8.09432779 17.727485,7.94069359 17.9498888,7.80900713 C18.1722926,7.67732067 18.433105,7.61147743 18.7312285,7.61147743 C19.2052998,7.61147743 19.5495135,7.76657482 19.7631382,8.0767696 C19.9767629,8.38733017 20.0835753,8.81714014 20.0835753,9.36729691 L20.0835753,12.0712589 L18.7926822,12.0712589 L18.7926822,9.53409976 C18.7926822,9.21805226 18.7502499,9.00150119 18.6657511,8.88444656 C18.5805207,8.76739192 18.4444447,8.70886461 18.2571572,8.70886461 C18.0932808,8.70886461 17.9528152,8.74544418 17.8357606,8.81860333 C17.7190717,8.89212827 17.5899458,8.99564846 17.4494803,9.13026128 L17.4494803,12.0712589 L16.158953,12.0712589 Z" id="Fill-20" fill="#7FDB65"></path>
                            <path d="M24.4729411,11.1757178 C24.6192594,11.1757178 24.7450931,11.1435278 24.8504423,11.0791477 C24.9557914,11.0151335 25.0669933,10.9244162 25.184048,10.8069957 L25.184048,10.0432143 C24.7275349,10.1075943 24.4114874,10.201238 24.2362713,10.3241454 C24.0603235,10.4470527 23.9725325,10.593371 23.9725325,10.7631002 C23.9725325,10.9035658 24.0178912,11.0074518 24.1086086,11.075124 C24.1993259,11.1420646 24.3207701,11.1757178 24.4729411,11.1757178 M24.0339862,12.1765349 C23.8349933,12.1765349 23.6550219,12.1428817 23.4940717,12.0755753 C23.3331216,12.0082689 23.1970456,11.914991 23.0858437,11.7946442 C22.9746418,11.6746632 22.888314,11.5356608 22.8268603,11.3776371 C22.7654067,11.2196133 22.7346798,11.0469577 22.7346798,10.8600361 C22.7346798,10.403523 22.92782,10.0461406 23.3141002,9.78862043 C23.7007463,9.53110024 24.3236964,9.35844466 25.184048,9.27065368 C25.1723425,9.07787933 25.1152784,8.92424513 25.0132214,8.80975107 C24.9104328,8.6959886 24.7396062,8.63855867 24.4992784,8.63855867 C24.311991,8.63855867 24.1261667,8.67367506 23.9418057,8.74427363 C23.7574447,8.81414062 23.559915,8.91107648 23.3495824,9.03398385 L22.8839245,8.18204561 C23.1648556,8.01268219 23.4593211,7.87514299 23.7662238,7.76942803 C24.0734922,7.66407886 24.3997819,7.61140428 24.7450931,7.61140428 C25.3069553,7.61140428 25.7356679,7.77089121 26.0312309,8.08986508 C26.3267938,8.40920475 26.4749411,8.90522375 26.4749411,9.57792209 L26.4749411,12.0711857 L25.4210836,12.0711857 L25.3336584,11.6238176 L25.2981762,11.6238176 C25.1108888,11.7876941 24.9148223,11.9204779 24.7099767,12.0229007 C24.5051311,12.1253235 24.2801667,12.1765349 24.0339862,12.1765349" id="Fill-21" fill="#7FDB65"></path>
                            <path d="M27.5629273,12.0712589 L27.5629273,7.7168266 L28.6167848,7.7168266 L28.70421,8.26990974 L28.7396922,8.26990974 C28.9269796,8.09432779 29.1314594,7.94069359 29.3538632,7.80900713 C29.576267,7.67732067 29.8370793,7.61147743 30.1352029,7.61147743 C30.6092741,7.61147743 30.9534879,7.76657482 31.1671126,8.0767696 C31.3807373,8.38733017 31.4875496,8.81714014 31.4875496,9.36729691 L31.4875496,12.0712589 L30.1966565,12.0712589 L30.1966565,9.53409976 C30.1966565,9.21805226 30.1542242,9.00150119 30.0697254,8.88444656 C29.984495,8.76739192 29.848419,8.70886461 29.6611316,8.70886461 C29.4972551,8.70886461 29.3567895,8.74544418 29.2397349,8.81860333 C29.1230461,8.89212827 28.9939202,8.99564846 28.8534546,9.13026128 L28.8534546,12.0712589 L27.5629273,12.0712589 Z" id="Fill-22" fill="#7FDB65"></path>
                            <path d="M33.0673482,13.7745135 C32.9327354,13.7745135 32.8186071,13.7668318 32.7249634,13.7522 C32.6313197,13.7375682 32.5409682,13.7159862 32.4528114,13.6867226 L32.6810679,12.7030979 C32.7220371,12.7151691 32.7692247,12.7268746 32.8215335,12.73858 C32.8742081,12.7499197 32.9235905,12.7561382 32.9707781,12.7561382 C33.1873292,12.7561382 33.3541321,12.7030979 33.4711867,12.5981145 C33.5882413,12.4927653 33.6760323,12.3548603 33.7345596,12.1851311 L33.7960133,11.9572404 L32.1192057,7.71657055 L33.4185121,7.71657055 L34.041828,9.58688409 C34.1062081,9.78587696 34.1647354,9.9874304 34.2177758,10.1926418 C34.2700846,10.3974874 34.3256855,10.6081857 34.3845786,10.8247368 L34.4193292,10.8247368 C34.4661511,10.6198912 34.5144361,10.4135824 34.5641843,10.2058105 C34.6139325,9.99803848 34.6651439,9.79172969 34.7178185,9.58688409 L35.2445644,7.71657055 L36.4824171,7.71657055 L34.9724124,12.1152641 C34.8670632,12.3903425 34.7573245,12.6317677 34.643562,12.8391739 C34.5290679,13.0473116 34.3973815,13.2196014 34.2485026,13.3571406 C34.0988922,13.4946798 33.9287971,13.5989316 33.7389492,13.6691644 C33.5487354,13.7390314 33.3248684,13.7745135 33.0673482,13.7745135" id="Fill-23" fill="#7FDB65"></path>
                            <path d="M38.9583055,11.1317492 C39.2216784,11.1317492 39.4206713,11.0205473 39.5552841,10.7981435 C39.6898969,10.5757397 39.7575691,10.274324 39.7575691,9.89389644 C39.7575691,9.51346888 39.6898969,9.212419 39.5552841,8.9900152 C39.4206713,8.76724561 39.2216784,8.65604371 38.9583055,8.65604371 C38.6890798,8.65604371 38.4886238,8.76724561 38.3569373,8.9900152 C38.2252508,9.212419 38.1594076,9.51346888 38.1594076,9.89389644 C38.1594076,10.274324 38.2252508,10.5757397 38.3569373,10.7981435 C38.4886238,11.0205473 38.6890798,11.1317492 38.9583055,11.1317492 M38.9583055,12.1764618 C38.6832271,12.1764618 38.4169278,12.1252504 38.1594076,12.0231933 C37.9018874,11.9204048 37.6750941,11.7726233 37.4790276,11.5798489 C37.282961,11.386343 37.1264005,11.14821 37.0093458,10.8643525 C36.8922912,10.5801292 36.8337639,10.2567658 36.8337639,9.89389644 C36.8337639,9.53102708 36.8922912,9.20766366 37.0093458,8.92417197 C37.1264005,8.63994869 37.282961,8.40144988 37.4790276,8.20867553 C37.6750941,8.0151696 37.9018874,7.86738812 38.1594076,7.76496532 C38.4169278,7.66290831 38.6832271,7.61133112 38.9583055,7.61133112 C39.2333838,7.61133112 39.4985857,7.66290831 39.7528138,7.76496532 C40.0074076,7.86738812 40.232372,8.0151696 40.4291701,8.20867553 C40.6248708,8.40144988 40.7810656,8.63994869 40.898486,8.92417197 C41.0155406,9.20766366 41.0740679,9.53102708 41.0740679,9.89389644 C41.0740679,10.2567658 41.0155406,10.5801292 40.898486,10.8643525 C40.7810656,11.14821 40.6248708,11.386343 40.4291701,11.5798489 C40.232372,11.7726233 40.0074076,11.9204048 39.7528138,12.0231933 C39.4985857,12.1252504 39.2333838,12.1764618 38.9583055,12.1764618" id="Fill-24" fill="#7FDB65"></path>
                            <path d="M41.9604276,12.0712589 L41.9604276,7.7168266 L43.014285,7.7168266 L43.1017102,8.26990974 L43.1371924,8.26990974 C43.3244798,8.09432779 43.5289596,7.94069359 43.7513634,7.80900713 C43.9737672,7.67732067 44.2345796,7.61147743 44.5327031,7.61147743 C45.0067743,7.61147743 45.3509881,7.76657482 45.5646128,8.0767696 C45.7782375,8.38733017 45.8850499,8.81714014 45.8850499,9.36729691 L45.8850499,12.0712589 L44.5941568,12.0712589 L44.5941568,9.53409976 C44.5941568,9.21805226 44.5517245,9.00150119 44.4672257,8.88444656 C44.3819952,8.76739192 44.2459192,8.70886461 44.0586318,8.70886461 C43.8947553,8.70886461 43.7542898,8.74544418 43.6372352,8.81860333 C43.5205463,8.89212827 43.3914204,8.99564846 43.2509549,9.13026128 L43.2509549,12.0712589 L41.9604276,12.0712589 Z" id="Fill-25" fill="#7FDB65"></path>
                            <path d="M47.965696,9.4199715 L49.5371544,9.4199715 C49.5371544,9.17415677 49.4815534,8.9751639 49.3703515,8.82299287 C49.2591496,8.67082185 49.0718622,8.59473634 48.8084893,8.59473634 C48.6036437,8.59473634 48.4236722,8.66204276 48.2685748,8.79665558 C48.1134774,8.93126841 48.0125178,9.13904038 47.965696,9.4199715 M48.9313967,12.1766081 C48.6212019,12.1766081 48.3314917,12.1253967 48.062266,12.0229739 C47.7926746,11.9205511 47.5589311,11.7716722 47.3599382,11.5752399 C47.1609454,11.3791734 47.005848,11.1406746 46.8946461,10.8601093 C46.7834442,10.5788124 46.7278432,10.2569121 46.7278432,9.89404276 C46.7278432,9.54287886 46.7860048,9.22573397 46.9034252,8.94151069 C47.0204798,8.65765321 47.174114,8.41805701 47.363962,8.2216247 C47.5545416,8.02555819 47.7725558,7.87485036 48.0183705,7.76950119 C48.2641853,7.66415202 48.5187791,7.61147743 48.782152,7.61147743 C49.0923468,7.61147743 49.3626698,7.66415202 49.5942185,7.76950119 C49.8254014,7.87485036 50.0185416,8.02116865 50.173639,8.20845606 C50.3287363,8.39574347 50.443962,8.61668409 50.5204133,8.87127791 C50.596133,9.12587173 50.6345416,9.4024133 50.6345416,9.70090261 C50.6345416,9.81795724 50.6286888,9.92915914 50.6169834,10.0345083 C50.6052779,10.1398575 50.5935724,10.2188694 50.581867,10.2715439 L47.9744751,10.2715439 C48.0330024,10.5875914 48.1632257,10.8202375 48.3651449,10.9694822 C48.5670641,11.1190926 48.8139762,11.1933492 49.1069786,11.1933492 C49.4171734,11.1933492 49.7302945,11.0967791 50.0459762,10.903639 L50.4765178,11.6849786 C50.254114,11.8371496 50.0068361,11.9574964 49.7346841,12.0449216 C49.4625321,12.1327126 49.1947696,12.1766081 48.9313967,12.1766081" id="Fill-26" fill="#7FDB65"></path>
                            <path d="M8.31969454,22.7114884 C8.01535249,22.7114884 7.73295819,22.6599112 7.47251164,22.5578542 C7.21206508,22.4554314 6.98527173,22.3076499 6.79213159,22.1145097 C6.59899145,21.9213696 6.44682043,21.6828708 6.33561853,21.3990133 C6.22405083,21.1151558 6.16881568,20.7917924 6.16881568,20.428923 C6.16881568,20.0660537 6.23026936,19.7426903 6.35317672,19.4588328 C6.47608409,19.1749753 6.64142375,18.9364765 6.84882993,18.7433363 C7.0569677,18.5501962 7.29839287,18.4024147 7.57347126,18.2996261 C7.84854964,18.1975691 8.13533349,18.1463577 8.4338228,18.1463577 C8.70304846,18.1463577 8.94154727,18.1902532 9.14931924,18.2780442 C9.35709121,18.3658352 9.54291544,18.4770371 9.70679192,18.6116499 L9.1010342,19.4456641 C8.8958228,19.2759349 8.70012209,19.1910703 8.51283468,19.1910703 C8.19678717,19.1910703 7.94768029,19.3022722 7.7666114,19.524676 C7.58517672,19.7470798 7.49445938,20.0484955 7.49445938,20.428923 C7.49445938,20.8093506 7.5866399,21.1107663 7.77100095,21.3328043 C7.955362,21.5555739 8.18800808,21.6667758 8.46893919,21.6667758 C8.60940475,21.6667758 8.74548076,21.6360489 8.87680143,21.5745952 C9.00885368,21.5131416 9.13322423,21.4385192 9.25027886,21.3507283 L9.75946651,22.1935216 C9.54291544,22.380809 9.30844038,22.5139587 9.05713872,22.5929705 C8.80547126,22.6719824 8.55929074,22.7114884 8.31969454,22.7114884" id="Fill-27" fill="#7FDB65"></path>
                            <path d="M12.1473444,21.6665929 C12.4107173,21.6665929 12.6097102,21.555391 12.744323,21.3329872 C12.8789359,21.1105834 12.9466081,20.8091677 12.9466081,20.4287401 C12.9466081,20.0483126 12.8789359,19.7472627 12.744323,19.5248589 C12.6097102,19.3020893 12.4107173,19.1908874 12.1473444,19.1908874 C11.8781188,19.1908874 11.6776627,19.3020893 11.5459762,19.5248589 C11.4142898,19.7472627 11.3484466,20.0483126 11.3484466,20.4287401 C11.3484466,20.8091677 11.4142898,21.1105834 11.5459762,21.3329872 C11.6776627,21.555391 11.8781188,21.6665929 12.1473444,21.6665929 M12.1473444,22.7113055 C11.872266,22.7113055 11.6059667,22.6600941 11.3484466,22.5580371 C11.0909264,22.4552485 10.864133,22.307467 10.6680665,22.1146926 C10.472,21.9211867 10.3154394,21.6830537 10.1983848,21.3991962 C10.0813302,21.1149729 10.0228029,20.7916095 10.0228029,20.4287401 C10.0228029,20.0658708 10.0813302,19.7425074 10.1983848,19.4590157 C10.3154394,19.1747924 10.472,18.9362936 10.6680665,18.7435192 C10.864133,18.5500133 11.0909264,18.4022318 11.3484466,18.299809 C11.6059667,18.197752 11.872266,18.1461748 12.1473444,18.1461748 C12.4224228,18.1461748 12.6876247,18.197752 12.9418527,18.299809 C13.1964466,18.4022318 13.4214109,18.5500133 13.618209,18.7435192 C13.8139097,18.9362936 13.9701045,19.1747924 14.0875249,19.4590157 C14.2045796,19.7425074 14.2631069,20.0658708 14.2631069,20.4287401 C14.2631069,20.7916095 14.2045796,21.1149729 14.0875249,21.3991962 C13.9701045,21.6830537 13.8139097,21.9211867 13.618209,22.1146926 C13.4214109,22.307467 13.1964466,22.4552485 12.9418527,22.5580371 C12.6876247,22.6600941 12.4224228,22.7113055 12.1473444,22.7113055" id="Fill-28" fill="#7FDB65"></path>
                            <path d="M16.08038,22.6061026 L14.6142708,18.2516703 L15.9135772,18.2516703 L16.4754394,20.3059791 C16.5339667,20.5225302 16.5910309,20.7434708 16.6466318,20.968801 C16.7022328,21.1941311 16.7592969,21.4209245 16.8178242,21.649181 L16.8529406,21.649181 C16.9056152,21.4209245 16.959753,21.1941311 17.0153539,20.968801 C17.0709549,20.7434708 17.128019,20.5225302 17.1865463,20.3059791 L17.7571876,18.2516703 L18.9950404,18.2516703 L17.5728266,22.6061026 L16.08038,22.6061026 Z" id="Fill-29" fill="#7FDB65"></path>
                            <path d="M20.5838741,19.9548152 L22.1553325,19.9548152 C22.1553325,19.7090005 22.0997316,19.5100076 21.9885297,19.3578366 C21.8773278,19.2056656 21.6900404,19.12958 21.4266675,19.12958 C21.2218219,19.12958 21.0418504,19.1968865 20.886753,19.3314993 C20.7316556,19.4661121 20.630696,19.6738841 20.5838741,19.9548152 M21.5495748,22.7114518 C21.23938,22.7114518 20.9496698,22.6602404 20.6804442,22.5578176 C20.4108527,22.4553948 20.1771093,22.3065159 19.9781164,22.1100836 C19.7791235,21.9140171 19.6240261,21.6755183 19.5128242,21.394953 C19.4016223,21.1136561 19.3460214,20.7917558 19.3460214,20.4288865 C19.3460214,20.0777226 19.4041829,19.7605777 19.5216033,19.4763544 C19.638658,19.1924969 19.7922922,18.9529007 19.9821401,18.7564684 C20.1727197,18.5604019 20.390734,18.4096941 20.6365487,18.3043449 C20.8823634,18.1989957 21.1369572,18.1463211 21.4003302,18.1463211 C21.7105249,18.1463211 21.980848,18.1989957 22.2123967,18.3043449 C22.4435796,18.4096941 22.6367197,18.5560124 22.7918171,18.7432998 C22.9469145,18.9305872 23.0621401,19.1515278 23.1385914,19.4061216 C23.2143112,19.6607154 23.2527197,19.937257 23.2527197,20.2357463 C23.2527197,20.352801 23.246867,20.4640029 23.2351615,20.569352 C23.2234561,20.6747012 23.2117506,20.7537131 23.2000451,20.8063876 L20.5926532,20.8063876 C20.6511805,21.1224352 20.7814038,21.3550812 20.983323,21.5043259 C21.1852423,21.6539363 21.4321544,21.7281929 21.7251568,21.7281929 C22.0353515,21.7281929 22.3484727,21.6316228 22.6641544,21.4384827 L23.094696,22.2198223 C22.8722922,22.3719933 22.6250143,22.4923401 22.3528622,22.5797653 C22.0807102,22.6675563 21.8129477,22.7114518 21.5495748,22.7114518" id="Fill-30" fill="#7FDB65"></path>
                            <path d="M24.1478584,22.6061026 L24.1478584,18.2516703 L25.2017159,18.2516703 L25.2891411,19.0154518 L25.3246233,19.0154518 C25.4822812,18.7169625 25.672495,18.497485 25.8948988,18.3570195 C26.1176684,18.2165539 26.3397064,18.1463211 26.562476,18.1463211 C26.6853834,18.1463211 26.786343,18.1536371 26.8653549,18.1682689 C26.9443667,18.1829007 27.0156969,18.2048485 27.0804428,18.2341121 L26.8693786,19.3490575 C26.7874404,19.3256466 26.7117207,19.3080884 26.6411221,19.2963829 C26.5708893,19.2846774 26.4889511,19.2788247 26.3956732,19.2788247 C26.2314309,19.2788247 26.0606043,19.337352 25.8817302,19.4544067 C25.7032219,19.5714613 25.5558062,19.7792333 25.4383857,20.0777226 L25.4383857,22.6061026 L24.1478584,22.6061026 Z" id="Fill-31" fill="#7FDB65"></path>
                            <path d="M29.6176751,22.6061026 L29.6176751,19.2612665 L29.0382546,19.2612665 L29.0382546,18.3043449 L29.6176751,18.2604494 L29.6176751,18.0234138 C29.6176751,17.7951572 29.6451097,17.5786062 29.7010765,17.3737606 C29.7566774,17.168915 29.848858,16.9904067 29.9772523,16.8382356 C30.1063781,16.6860646 30.273181,16.5660836 30.4780266,16.4782926 C30.6828722,16.3905017 30.9316133,16.3466062 31.2242499,16.3466062 C31.4056846,16.3466062 31.5710242,16.3641644 31.7202689,16.3992808 C31.8695135,16.4343971 31.9935183,16.4695135 32.0933805,16.5046299 L31.8563449,17.4527724 C31.6924684,17.3942451 31.5432238,17.3649815 31.4086109,17.3649815 C31.2505872,17.3649815 31.1276798,17.4132665 31.0398888,17.5098366 C30.9517321,17.6064067 30.9082024,17.7662594 30.9082024,17.9882974 L30.9082024,18.2516703 L31.689542,18.2516703 L31.689542,19.2612665 L30.9082024,19.2612665 L30.9082024,22.6061026 L29.6176751,22.6061026 Z" id="Fill-32" fill="#7FDB65"></path>
                            <path d="M34.1736974,21.6665929 C34.4370703,21.6665929 34.6360632,21.555391 34.770676,21.3329872 C34.9052888,21.1105834 34.972961,20.8091677 34.972961,20.4287401 C34.972961,20.0483126 34.9052888,19.7472627 34.770676,19.5248589 C34.6360632,19.3020893 34.4370703,19.1908874 34.1736974,19.1908874 C33.9044717,19.1908874 33.7040157,19.3020893 33.5723292,19.5248589 C33.4406428,19.7472627 33.3747995,20.0483126 33.3747995,20.4287401 C33.3747995,20.8091677 33.4406428,21.1105834 33.5723292,21.3329872 C33.7040157,21.555391 33.9044717,21.6665929 34.1736974,21.6665929 M34.1736974,22.7113055 C33.898619,22.7113055 33.6323197,22.6600941 33.3747995,22.5580371 C33.1172793,22.4552485 32.890486,22.307467 32.6944195,22.1146926 C32.498353,21.9211867 32.3417924,21.6830537 32.2247378,21.3991962 C32.1076831,21.1149729 32.0491558,20.7916095 32.0491558,20.4287401 C32.0491558,20.0658708 32.1076831,19.7425074 32.2247378,19.4590157 C32.3417924,19.1747924 32.498353,18.9362936 32.6944195,18.7435192 C32.890486,18.5500133 33.1172793,18.4022318 33.3747995,18.299809 C33.6323197,18.197752 33.898619,18.1461748 34.1736974,18.1461748 C34.4487758,18.1461748 34.7139777,18.197752 34.9682057,18.299809 C35.2227995,18.4022318 35.4477639,18.5500133 35.644562,18.7435192 C35.8402627,18.9362936 35.9964575,19.1747924 36.1138779,19.4590157 C36.2309325,19.7425074 36.2894599,20.0658708 36.2894599,20.4287401 C36.2894599,20.7916095 36.2309325,21.1149729 36.1138779,21.3991962 C35.9964575,21.6830537 35.8402627,21.9211867 35.644562,22.1146926 C35.4477639,22.307467 35.2227995,22.4552485 34.9682057,22.5580371 C34.7139777,22.6600941 34.4487758,22.7113055 34.1736974,22.7113055" id="Fill-33" fill="#7FDB65"></path>
                            <path d="M37.1761487,22.6061026 L37.1761487,18.2516703 L38.2300062,18.2516703 L38.3174314,19.0154518 L38.3529135,19.0154518 C38.5105715,18.7169625 38.7007853,18.497485 38.9231891,18.3570195 C39.1459587,18.2165539 39.3679967,18.1463211 39.5907663,18.1463211 C39.7136736,18.1463211 39.8146333,18.1536371 39.8936451,18.1682689 C39.972657,18.1829007 40.0439872,18.2048485 40.108733,18.2341121 L39.8976689,19.3490575 C39.8157306,19.3256466 39.7400109,19.3080884 39.6694124,19.2963829 C39.5991796,19.2846774 39.5172413,19.2788247 39.4239634,19.2788247 C39.2597211,19.2788247 39.0888945,19.337352 38.9100204,19.4544067 C38.7315121,19.5714613 38.5840964,19.7792333 38.466676,20.0777226 L38.466676,22.6061026 L37.1761487,22.6061026 Z" id="Fill-34" fill="#7FDB65"></path>
                            <path d="M42.425866,22.6061026 L42.425866,18.2516703 L43.4797235,18.2516703 L43.5671487,18.8135325 L43.6026309,18.8135325 C43.7836998,18.6324637 43.9768399,18.4755373 44.1820513,18.3438508 C44.3865311,18.2121644 44.6323458,18.1463211 44.9191297,18.1463211 C45.2293245,18.1463211 45.4798945,18.209238 45.6697425,18.3350717 C45.8599563,18.4609055 46.0110299,18.640877 46.121866,18.8749862 C46.315372,18.6759933 46.5183886,18.504801 46.7320133,18.361409 C46.945638,18.2180171 47.1987686,18.1463211 47.491771,18.1463211 C47.9596238,18.1463211 48.3034717,18.3028817 48.5229492,18.6160029 C48.7427924,18.929124 48.8521653,19.3578366 48.8521653,19.9021406 L48.8521653,22.6061026 L47.561638,22.6061026 L47.561638,20.0689435 C47.561638,19.752896 47.5192057,19.5363449 47.4343411,19.4192903 C47.3494765,19.3022356 47.2134005,19.2437083 47.0261131,19.2437083 C46.809562,19.2437083 46.5611867,19.3841739 46.2798898,19.665105 L46.2798898,22.6061026 L44.9897283,22.6061026 L44.9897283,20.0689435 C44.9897283,19.752896 44.947296,19.5363449 44.8620656,19.4192903 C44.7775667,19.3022356 44.6414907,19.2437083 44.4538375,19.2437083 C44.2317995,19.2437083 43.9859848,19.3841739 43.7163933,19.665105 L43.7163933,22.6061026 L42.425866,22.6061026 Z" id="Fill-35" fill="#7FDB65"></path>
                            <path d="M50.9327748,19.9548152 L52.5042333,19.9548152 C52.5042333,19.7090005 52.4486323,19.5100076 52.3374304,19.3578366 C52.2262285,19.2056656 52.0389411,19.12958 51.7755682,19.12958 C51.5707226,19.12958 51.3907511,19.1968865 51.2356537,19.3314993 C51.0805563,19.4661121 50.9795967,19.6738841 50.9327748,19.9548152 M51.8984755,22.7114518 C51.5882808,22.7114518 51.2985705,22.6602404 51.0293449,22.5578176 C50.7597534,22.4553948 50.52601,22.3065159 50.3270171,22.1100836 C50.1280242,21.9140171 49.9729268,21.6755183 49.8617249,21.394953 C49.750523,21.1136561 49.6949221,20.7917558 49.6949221,20.4288865 C49.6949221,20.0777226 49.7530836,19.7605777 49.870504,19.4763544 C49.9875587,19.1924969 50.1411929,18.9529007 50.3310409,18.7564684 C50.5216204,18.5604019 50.7396347,18.4096941 50.9854494,18.3043449 C51.2312641,18.1989957 51.485858,18.1463211 51.7492309,18.1463211 C52.0594257,18.1463211 52.3297487,18.1989957 52.5612974,18.3043449 C52.7924803,18.4096941 52.9856204,18.5560124 53.1407178,18.7432998 C53.2958152,18.9305872 53.4110409,19.1515278 53.4874922,19.4061216 C53.5632119,19.6607154 53.6016204,19.937257 53.6016204,20.2357463 C53.6016204,20.352801 53.5957677,20.4640029 53.5840622,20.569352 C53.5723568,20.6747012 53.5606513,20.7537131 53.5489458,20.8063876 L50.9415539,20.8063876 C51.0000812,21.1224352 51.1303045,21.3550812 51.3322238,21.5043259 C51.534143,21.6539363 51.7810551,21.7281929 52.0740575,21.7281929 C52.3842523,21.7281929 52.6973734,21.6316228 53.0130551,21.4384827 L53.4435967,22.2198223 C53.2211929,22.3719933 52.973915,22.4923401 52.7017629,22.5797653 C52.4296109,22.6675563 52.1618485,22.7114518 51.8984755,22.7114518" id="Fill-36" fill="#7FDB65"></path>
                            <path d="M55.7002637,22.7114884 C55.4778599,22.7114884 55.2934988,22.6339397 55.1468147,22.4788423 C55.0008622,22.3237449 54.9277031,22.1320679 54.9277031,21.9038114 C54.9277031,21.6697021 55.0008622,21.4750988 55.1468147,21.3200014 C55.2934988,21.164904 55.4778599,21.0873553 55.7002637,21.0873553 C55.9223017,21.0873553 56.1081259,21.164904 56.2573705,21.3200014 C56.406981,21.4750988 56.4816033,21.6697021 56.4816033,21.9038114 C56.4816033,22.1320679 56.406981,22.3237449 56.2573705,22.4788423 C56.1081259,22.6339397 55.9223017,22.7114884 55.7002637,22.7114884 L55.7002637,22.7114884 Z M55.1384014,20.5781677 C55.1091378,20.3791748 55.1160879,20.1977401 55.1599834,20.0338637 C55.2042447,19.8699872 55.2667957,19.7174504 55.3490998,19.5773506 C55.431038,19.436885 55.5232185,19.3081249 55.6256413,19.1910703 C55.7276983,19.0740157 55.8260974,18.9613506 55.9197411,18.8530751 C56.013019,18.7447995 56.0905677,18.6394504 56.1520214,18.5370276 C56.2134751,18.4349705 56.2442019,18.3277924 56.2442019,18.2165905 C56.2442019,18.0351558 56.1904299,17.8976166 56.0821544,17.8039729 C55.9735131,17.7103292 55.8315843,17.6635074 55.6563682,17.6635074 C55.4924917,17.6635074 55.3472708,17.7015501 55.2214371,17.7776356 C55.0959691,17.8537211 54.9745249,17.9502912 54.8571045,18.0673458 L54.1463634,17.4176926 C54.351209,17.1777306 54.5951948,16.9845905 54.8794181,16.8382722 C55.1629097,16.6919539 55.4778599,16.6187948 55.823171,16.6187948 C56.0572803,16.6187948 56.2749287,16.6480584 56.4772138,16.7065857 C56.679133,16.7651131 56.8543492,16.8558304 57.0035938,16.9787378 C57.1532043,17.1016451 57.2698931,17.2582057 57.3547577,17.4484195 C57.4396223,17.6386333 57.4820546,17.8625002 57.4820546,18.1200204 C57.4820546,18.3014551 57.4498646,18.4638684 57.3854846,18.6072603 C57.3214703,18.7506523 57.2409952,18.8838019 57.1440594,19.0067093 C57.0478551,19.1296166 56.9450665,19.2481344 56.836791,19.3622627 C56.7288812,19.476391 56.629019,19.594543 56.5386675,19.7174504 C56.4475843,19.8407235 56.3762542,19.9709468 56.3232138,20.108486 C56.270905,20.2460252 56.2533468,20.4025857 56.270905,20.5781677 L55.1384014,20.5781677 Z" id="Fill-37" fill="#7FDB65"></path>
                        </g>
                        <g id="Group-68" transform="translate(86.790974, 24.605701)">
                            <path d="M3.15758527,11.8665596 L14.1014618,7.16571876 L14.1014618,14.5602793 L1.8290152,16.8267496 L1.8290152,13.8831914 C1.8290152,13.0056475 2.3513715,12.2126024 3.15758527,11.8665596" id="Fill-38" fill="#CCCCCC"></path>
                            <path d="M3.15758527,11.8665596 L14.1014618,7.16571876 L14.1014618,14.5602793 L1.8290152,16.8267496 L1.8290152,13.8831914 C1.8290152,13.0056475 2.3513715,12.2126024 3.15758527,11.8665596 Z" id="Stroke-39" stroke="#666666" stroke-width="2" stroke-linecap="round" stroke-linejoin="round"></path>
                            <line x1="19.0213777" y1="6.95011876" x2="19.0213777" y2="3.65795724" id="Stroke-40" stroke="#666666" stroke-width="2" stroke-linecap="round" stroke-linejoin="round"></line>
                            <polygon id="Fill-41" fill="#FFFFFF" points="14.631829 3.65795724 23.4109264 3.65795724 23.4109264 -1.23012711e-13 14.631829 -1.23012711e-13"></polygon>
                            <polygon id="Fill-42" fill="#EEEEEE" points="9.51068884 21.9477435 39.5059382 21.9477435 39.5059382 14.631829 9.51068884 14.631829"></polygon>
                            <polygon id="Fill-43" fill="#CCCCCC" points="-2.48689958e-14 17.192399 9.51068884 14.631829 9.51068884 21.9477435 -2.48689958e-14 21.9477435"></polygon>
                            <polygon id="Stroke-44" stroke="#666666" stroke-width="2" stroke-linecap="round" stroke-linejoin="round" points="-2.48689958e-14 17.192399 9.51068884 14.631829 9.51068884 21.9477435 -2.48689958e-14 21.9477435"></polygon>
                            <path d="M37.3111639,14.631829 L11.7054632,14.631829 L11.7054632,10.608076 C11.7054632,8.58815202 13.3431306,6.95011876 15.3634204,6.95011876 L33.6532067,6.95011876 C35.6734964,6.95011876 37.3111639,8.58815202 37.3111639,10.608076 L37.3111639,14.631829 Z" id="Fill-45" fill="#EEEEEE"></path>
                            <polygon id="Fill-46" fill="#CCCCCC" points="25.6057007 14.631829 29.6294537 14.631829 29.6294537 5.85273159 25.6057007 5.85273159"></polygon>
                            <polygon id="Fill-47" fill="#CCCCCC" points="27.4346793 22.6793349 31.4584323 22.6793349 31.4584323 13.9002375 27.4346793 13.9002375"></polygon>
                            <path d="M28.1662708,0.731591449 C27.1563088,0.731591449 26.3372922,1.55024228 26.3372922,2.56057007 L26.3372922,6.95011876 L31.4584323,6.95011876 L31.4584323,2.56057007 C31.4584323,1.55024228 32.2774489,0.731591449 33.2874109,0.731591449 L28.1662708,0.731591449 Z" id="Fill-48" fill="#DDDDDD"></path>
                            <path d="M28.1662708,0.731591449 C27.1563088,0.731591449 26.3372922,1.55024228 26.3372922,2.56057007 L26.3372922,6.95011876 L31.4584323,6.95011876 L31.4584323,2.56057007 C31.4584323,1.55024228 32.2774489,0.731591449 33.2874109,0.731591449 L28.1662708,0.731591449 Z" id="Stroke-49" stroke="#666666" stroke-width="2" stroke-linecap="round" stroke-linejoin="round"></path>
                            <polygon id="Stroke-50" stroke="#666666" stroke-width="2" stroke-linecap="round" stroke-linejoin="round" points="9.51068884 21.9477435 39.5059382 21.9477435 39.5059382 14.631829 9.51068884 14.631829"></polygon>
                            <path d="M37.3111639,14.631829 L11.7054632,14.631829 L11.7054632,10.608076 C11.7054632,8.58815202 13.3431306,6.95011876 15.3634204,6.95011876 L33.6532067,6.95011876 C35.6734964,6.95011876 37.3111639,8.58815202 37.3111639,10.608076 L37.3111639,14.631829 Z" id="Stroke-51" stroke="#666666" stroke-width="2" stroke-linecap="round" stroke-linejoin="round"></path>
                            <polygon id="Stroke-52" stroke="#666666" stroke-width="2" stroke-linecap="round" stroke-linejoin="round" points="14.631829 3.65795724 23.4109264 3.65795724 23.4109264 -1.23012711e-13 14.631829 -1.23012711e-13"></polygon>
                            <path d="M34.7505938,25.6057007 L34.7505938,2.56057007 C34.7505938,1.55024228 33.9315772,0.731591449 32.9216152,0.731591449 L27.8004751,0.731591449 C28.8104371,0.731591449 29.6294537,1.55024228 29.6294537,2.56057007 L29.6294537,25.9714964 L29.666399,25.9714964 C29.8357625,26.8062423 30.5735724,27.4346793 31.4584323,27.4346793 L36.5795724,27.4346793 C35.5696105,27.4346793 34.7505938,26.6160285 34.7505938,25.6057007" id="Fill-53" fill="#EEEEEE"></path>
                            <path d="M34.7505938,25.6057007 L34.7505938,2.56057007 C34.7505938,1.55024228 33.9315772,0.731591449 32.9216152,0.731591449 L27.8004751,0.731591449 C28.8104371,0.731591449 29.6294537,1.55024228 29.6294537,2.56057007 L29.6294537,25.9714964 L29.666399,25.9714964 C29.8357625,26.8062423 30.5735724,27.4346793 31.4584323,27.4346793 L36.5795724,27.4346793 C35.5696105,27.4346793 34.7505938,26.6160285 34.7505938,25.6057007 Z" id="Stroke-54" stroke="#666666" stroke-width="2" stroke-linecap="round" stroke-linejoin="round"></path>
                            <path d="M35.4821853,19.3871734 C34.4722233,19.3871734 33.6532067,20.2058242 33.6532067,21.216152 L33.6532067,25.6057007 C33.6532067,26.6160285 32.83419,27.4346793 31.824228,27.4346793 L36.9453682,27.4346793 C37.9553302,27.4346793 38.7743468,26.6160285 38.7743468,25.6057007 L38.7743468,21.216152 C38.7743468,20.2058242 39.5933634,19.3871734 40.6033254,19.3871734 L35.4821853,19.3871734 Z" id="Fill-55" fill="#DDDDDD"></path>
                            <path d="M35.4821853,19.3871734 C34.4722233,19.3871734 33.6532067,20.2058242 33.6532067,21.216152 L33.6532067,25.6057007 C33.6532067,26.6160285 32.83419,27.4346793 31.824228,27.4346793 L36.9453682,27.4346793 C37.9553302,27.4346793 38.7743468,26.6160285 38.7743468,25.6057007 L38.7743468,21.216152 C38.7743468,20.2058242 39.5933634,19.3871734 40.6033254,19.3871734 L35.4821853,19.3871734 Z" id="Stroke-56" stroke="#666666" stroke-width="2" stroke-linecap="round" stroke-linejoin="round"></path>
                            <path d="M42.0665083,19.3871734 L36.9453682,19.3871734 C37.9553302,19.3871734 38.7743468,20.2058242 38.7743468,21.216152 L38.7743468,49.0166271 L43.8954869,49.0166271 L43.8954869,21.216152 C43.8954869,20.2058242 43.0764703,19.3871734 42.0665083,19.3871734" id="Fill-57" fill="#EEEEEE"></path>
                            <path d="M42.0665083,19.3871734 L36.9453682,19.3871734 C37.9553302,19.3871734 38.7743468,20.2058242 38.7743468,21.216152 L38.7743468,49.0166271 L43.8954869,49.0166271 L43.8954869,21.216152 C43.8954869,20.2058242 43.0764703,19.3871734 42.0665083,19.3871734 Z" id="Stroke-58" stroke="#666666" stroke-width="2" stroke-linecap="round" stroke-linejoin="round"></path>
                        </g>
                        <g id="Group-67" transform="translate(144.952494, 53.287926)">
                            <polygon id="Fill-59" fill="#CCCCCC" points="5.85273159 37.9880689 26.3372922 37.9880689 26.3372922 15.8651093 5.85273159 15.8651093"></polygon>
                            <polygon id="Stroke-60" stroke="#666666" stroke-width="2" stroke-linecap="round" stroke-linejoin="round" points="5.85273159 37.9880689 26.3372922 37.9880689 26.3372922 15.8651093 5.85273159 15.8651093"></polygon>
                            <path d="M26.3372922,15.9448527 C26.3372922,10.2881876 21.751677,5.70257245 16.0950119,5.70257245 C10.4383468,5.70257245 5.85273159,10.2881876 5.85273159,15.9448527 C5.85273159,21.6015178 10.4383468,26.187133 16.0950119,26.187133 C21.751677,26.187133 26.3372922,21.6015178 26.3372922,15.9448527" id="Fill-61" fill="#FFFFFF"></path>
                            <path d="M0.365795724,40.7374993 C4.92690261,43.5669292 10.3154394,45.2086204 16.0939145,45.2086204 C21.8731211,45.2086204 27.2627553,43.5665634 31.824228,40.7360361 C31.0809311,32.6076893 24.3693112,26.2260171 16.1674394,26.1874265 C7.91545368,26.1481026 1.11494537,32.5447724 0.365795724,40.7374993" id="Fill-62" fill="#EEEEEE"></path>
                            <path d="M31.824228,40.7360727 C31.3132114,35.1481772 27.9811781,30.3851511 23.2832637,27.9416356" id="Stroke-63" stroke="#666666" stroke-width="2" stroke-linecap="round" stroke-linejoin="round"></path>
                            <path d="M8.90917435,27.9396603 C4.21455202,30.3806152 0.87776342,35.1399834 0.365649406,40.7373895" id="Stroke-64" stroke="#666666" stroke-width="2" stroke-linecap="round" stroke-linejoin="round"></path>
                            <path d="M26.3372922,15.9448527 C26.3372922,10.2881876 21.751677,5.70257245 16.0950119,5.70257245 C10.4383468,5.70257245 5.85273159,10.2881876 5.85273159,15.9448527 C5.85273159,21.6015178 10.4383468,26.187133 16.0950119,26.187133 C21.751677,26.187133 26.3372922,21.6015178 26.3372922,15.9448527 Z" id="Stroke-65" stroke="#666666" stroke-width="2" stroke-linecap="round" stroke-linejoin="round"></path>
                            <path d="M6.64910546,11.9797002 C8.20593207,12.9347929 10.0374713,13.4867786 11.9981363,13.4867786 C16.2486827,13.4867786 19.8942029,10.8973107 21.4440793,7.20972399 C19.8868869,6.25426556 18.0557135,5.70264561 16.0950485,5.70264561 C11.8445021,5.70264561 8.19898195,8.29211354 6.64910546,11.9797002" id="Fill-66" fill="#CCCCCC"></path>
                            <path d="M6.64910546,11.9797002 C8.20593207,12.9347929 10.0374713,13.4867786 11.9981363,13.4867786 C16.2486827,13.4867786 19.8942029,10.8973107 21.4440793,7.20972399 C19.8868869,6.25426556 18.0557135,5.70264561 16.0950485,5.70264561 C11.8445021,5.70264561 8.19898195,8.29211354 6.64910546,11.9797002 Z" id="Stroke-67" stroke="#666666" stroke-width="2" stroke-linecap="round" stroke-linejoin="round"></path>
                            <path d="M11.2418903,17.7748922 C11.8235055,19.8844361 13.7322276,21.431752 15.9972347,21.431752 C18.2622418,21.431752 20.1709639,19.8840703 20.7525791,17.7737948" id="Stroke-68" stroke="#666666" stroke-width="2" stroke-linecap="round" stroke-linejoin="round"></path>
                            <path d="M16.0950119,8.66752969 C20.1502233,8.66752969 23.6545463,9.84612352 25.3141615,11.5554869 L25.6057007,11.5554869 L25.6057007,9.13684561 C25.6057007,5.21990499 22.430228,2.0447981 18.5132874,2.0447981 L14.4083278,2.0447981 C10.4913872,2.0447981 7.31591449,5.21990499 7.31591449,9.13684561 L7.31591449,11.1501853 C9.10794774,9.66285986 12.3686508,8.66752969 16.0950119,8.66752969" id="Fill-69" fill="#EEEEEE"></path>
                            <path d="M16.0950119,8.66752969 C20.1502233,8.66752969 23.6545463,9.84612352 25.3141615,11.5554869 L25.6057007,11.5554869 L25.6057007,9.13684561 C25.6057007,5.21990499 22.430228,2.0447981 18.5132874,2.0447981 L14.4083278,2.0447981 C10.4913872,2.0447981 7.31591449,5.21990499 7.31591449,9.13684561 L7.31591449,11.1501853 C9.10794774,9.66285986 12.3686508,8.66752969 16.0950119,8.66752969 Z" id="Stroke-70" stroke="#666666" stroke-width="2" stroke-linecap="round" stroke-linejoin="round"></path>
                            <path d="M5.85273159,13.7886698 C5.85273159,10.9603373 10.4383468,8.66752969 16.0950119,8.66752969 C16.3126603,8.66752969 16.5284798,8.67191924 16.7428361,8.67850356 L9.73455582,1.67022328 C7.50759145,-0.556741093 3.89718765,-0.556741093 1.67022328,1.67022328 C-0.556741093,3.89718765 -0.556741093,7.50795724 1.67022328,9.73492162 L5.85968171,13.9240143 C5.85712114,13.8790214 5.85273159,13.8340285 5.85273159,13.7886698" id="Fill-71" fill="#CCCCCC"></path>
                            <path d="M5.85273159,13.7886698 C5.85273159,10.9603373 10.4383468,8.66752969 16.0950119,8.66752969 C16.3126603,8.66752969 16.5284798,8.67191924 16.7428361,8.67850356 L9.73455582,1.67022328 C7.50759145,-0.556741093 3.89718765,-0.556741093 1.67022328,1.67022328 C-0.556741093,3.89718765 -0.556741093,7.50795724 1.67022328,9.73492162 L5.85968171,13.9240143 C5.85712114,13.8790214 5.85273159,13.8340285 5.85273159,13.7886698 Z" id="Stroke-72" stroke="#666666" stroke-width="2" stroke-linecap="round" stroke-linejoin="round"></path>
                        </g>
                        <g id="Group-66" transform="translate(71.427553, 59.356295)">
                            <path d="M4.38954869,18.2897862 L74.6223278,18.2897862 L70.9643705,13.1686461 L70.9643705,4.38954869 C70.9643705,1.96542043 68.9989501,-1.61648472e-13 66.5748219,-1.61648472e-13 L4.38954869,-1.61648472e-13 C1.96542043,-1.61648472e-13 3.55271368e-14,1.96542043 3.55271368e-14,4.38954869 L3.55271368e-14,13.9002375 C3.55271368e-14,16.3243658 1.96542043,18.2897862 4.38954869,18.2897862" id="Fill-73" fill="#FFFFFF"></path>
                            <path d="M4.38954869,18.2897862 L74.6223278,18.2897862 L70.9643705,13.1686461 L70.9643705,4.38954869 C70.9643705,1.96542043 68.9989501,-1.61648472e-13 66.5748219,-1.61648472e-13 L4.38954869,-1.61648472e-13 C1.96542043,-1.61648472e-13 3.55271368e-14,1.96542043 3.55271368e-14,4.38954869 L3.55271368e-14,13.9002375 C3.55271368e-14,16.3243658 1.96542043,18.2897862 4.38954869,18.2897862 Z" id="Stroke-74" stroke="#7FDB65" stroke-width="2" stroke-linecap="round" stroke-linejoin="round"></path>
                            <path d="M8.64155819,11.8108489 C8.26698337,11.8108489 7.89387173,11.7420793 7.52222328,11.6045401 C7.15057482,11.4673667 6.8184323,11.2606922 6.52579572,10.9856138 L7.2632399,10.0989249 C7.46808551,10.2745069 7.69487886,10.4178988 7.94361995,10.5291007 C8.19199525,10.6403026 8.43634679,10.6959036 8.67667458,10.6959036 C8.94590024,10.6959036 9.14635629,10.6461553 9.27804276,10.5466589 C9.40972922,10.4471625 9.47557245,10.3125496 9.47557245,10.1424546 C9.47557245,10.0550295 9.45655107,9.97894394 9.41850831,9.9141981 C9.38046556,9.85018385 9.32486461,9.79311971 9.25170546,9.7433715 C9.17854632,9.69362328 9.09075534,9.64680143 8.98833254,9.60290594 C8.88590974,9.55901045 8.77324466,9.51072542 8.65033729,9.45805083 L7.90411401,9.14200333 C7.75779572,9.08347601 7.61550119,9.0073905 7.47832779,8.91374679 C7.3407886,8.82010309 7.21751544,8.71036437 7.1096057,8.58453064 C7.00133017,8.45869691 6.91500238,8.31237862 6.85062233,8.14520998 C6.78624228,7.97840713 6.75405226,7.79002233 6.75405226,7.57932399 C6.75405226,7.34521473 6.80380048,7.12427411 6.90329691,6.91650214 C7.00279335,6.70873017 7.14325891,6.52729549 7.32469359,6.3721981 C7.50612827,6.21710071 7.72085036,6.09565653 7.96995724,6.00786556 C8.21869834,5.92007458 8.49231354,5.8761791 8.79080285,5.8761791 C9.12440855,5.8761791 9.4536247,5.94055914 9.77845131,6.06931924 C10.1032779,6.19807933 10.3885986,6.38536675 10.6344133,6.63118147 L9.975981,7.44763753 C9.78869359,7.30131924 9.60140618,7.18865416 9.41411876,7.10927648 C9.22683135,7.0306304 9.01905938,6.99112447 8.79080285,6.99112447 C8.56839905,6.99112447 8.39135392,7.03648314 8.25966746,7.12720048 C8.127981,7.21791781 8.06213777,7.34521473 8.06213777,7.50909121 C8.06213777,7.59651639 8.08408551,7.67150451 8.127981,7.73295819 C8.17187648,7.79441188 8.23333017,7.85001283 8.31234204,7.89976105 C8.39135392,7.94950926 8.48353444,7.99633112 8.58888361,8.0402266 C8.69423278,8.08412209 8.80836105,8.13240713 8.93126841,8.18508171 L9.66871259,8.48357102 C10.0198765,8.62403658 10.2964181,8.81681093 10.4983373,9.06299145 C10.7002565,9.30880618 10.8012162,9.63363278 10.8012162,10.0374713 C10.8012162,10.277799 10.7529311,10.5042266 10.656361,10.7178513 C10.559791,10.931476 10.4193254,11.1187634 10.2349644,11.2797135 C10.0506033,11.4406637 9.82344418,11.5694238 9.55458432,11.6659938 C9.28535867,11.7625639 8.98101663,11.8108489 8.64155819,11.8108489" id="Fill-75" fill="#7FDB65"></path>
                            <path d="M13.5401482,10.7659534 C13.8035211,10.7659534 14.002514,10.6547515 14.1371268,10.4323477 C14.2717397,10.2099439 14.3394119,9.90852827 14.3394119,9.52810071 C14.3394119,9.14767316 14.2717397,8.84662328 14.1371268,8.62421948 C14.002514,8.40144988 13.8035211,8.29024798 13.5401482,8.29024798 C13.2709226,8.29024798 13.0704665,8.40144988 12.93878,8.62421948 C12.8070936,8.84662328 12.7412504,9.14767316 12.7412504,9.52810071 C12.7412504,9.90852827 12.8070936,10.2099439 12.93878,10.4323477 C13.0704665,10.6547515 13.2709226,10.7659534 13.5401482,10.7659534 M13.5401482,11.810666 C13.2650698,11.810666 12.9987705,11.7594546 12.7412504,11.6573976 C12.4837302,11.554609 12.2569368,11.4068276 12.0608703,11.2140532 C11.8648038,11.0205473 11.7082432,10.7824143 11.5911886,10.4985568 C11.474134,10.2143335 11.4156067,9.89097007 11.4156067,9.52810071 C11.4156067,9.16523135 11.474134,8.84186793 11.5911886,8.55837625 C11.7082432,8.27415297 11.8648038,8.03565416 12.0608703,7.84287981 C12.2569368,7.64937387 12.4837302,7.5015924 12.7412504,7.3991696 C12.9987705,7.29711259 13.2650698,7.24553539 13.5401482,7.24553539 C13.8152266,7.24553539 14.0804285,7.29711259 14.3346565,7.3991696 C14.5892504,7.5015924 14.8142147,7.64937387 15.0110128,7.84287981 C15.2067135,8.03565416 15.3629083,8.27415297 15.4803287,8.55837625 C15.5973834,8.84186793 15.6559107,9.16523135 15.6559107,9.52810071 C15.6559107,9.89097007 15.5973834,10.2143335 15.4803287,10.4985568 C15.3629083,10.7824143 15.2067135,11.0205473 15.0110128,11.2140532 C14.8142147,11.4068276 14.5892504,11.554609 14.3346565,11.6573976 C14.0804285,11.7594546 13.8152266,11.810666 13.5401482,11.810666" id="Fill-76" fill="#7FDB65"></path>
                            <path d="M16.5425995,11.7054632 L16.5425995,7.35103088 L17.596457,7.35103088 L17.6838822,8.11481235 L17.7193644,8.11481235 C17.8770223,7.81632304 18.0672361,7.59684561 18.2896399,7.45638005 C18.5124095,7.31591449 18.7344475,7.24568171 18.9572171,7.24568171 C19.0801245,7.24568171 19.1810841,7.25299762 19.260096,7.26762945 C19.3391078,7.28226128 19.410438,7.30420903 19.4751838,7.33347268 L19.2641197,8.44841805 C19.1821815,8.42500713 19.1064618,8.40744893 19.0358632,8.39574347 C18.9656304,8.384038 18.8836922,8.37818527 18.7904143,8.37818527 C18.626172,8.37818527 18.4553454,8.43671259 18.2764713,8.55376722 C18.0979629,8.67082185 17.9505473,8.87859382 17.8331268,9.17708314 L17.8331268,11.7054632 L16.5425995,11.7054632 Z" id="Fill-77" fill="#7FDB65"></path>
                            <path d="M20.0366071,11.7054632 L20.0366071,7.35103088 L21.0904646,7.35103088 L21.1778898,8.11481235 L21.213372,8.11481235 C21.3710299,7.81632304 21.5612437,7.59684561 21.7836475,7.45638005 C22.0064171,7.31591449 22.2284551,7.24568171 22.4512247,7.24568171 C22.5741321,7.24568171 22.6750917,7.25299762 22.7541036,7.26762945 C22.8331154,7.28226128 22.9044456,7.30420903 22.9691914,7.33347268 L22.7581273,8.44841805 C22.6761891,8.42500713 22.6004694,8.40744893 22.5298708,8.39574347 C22.459638,8.384038 22.3776998,8.37818527 22.2844219,8.37818527 C22.1201796,8.37818527 21.949353,8.43671259 21.7704789,8.55376722 C21.5919705,8.67082185 21.4445549,8.87859382 21.3271344,9.17708314 L21.3271344,11.7054632 L20.0366071,11.7054632 Z" id="Fill-78" fill="#7FDB65"></path>
                            <path d="M24.0749919,13.4087178 C23.9403791,13.4087178 23.8262508,13.4010361 23.7326071,13.3864043 C23.6389634,13.3717724 23.5486119,13.3501905 23.4604551,13.3209268 L23.6887116,12.3373021 C23.7296808,12.3493734 23.7768684,12.3610789 23.8291772,12.3727843 C23.8818518,12.384124 23.9312342,12.3903425 23.9784219,12.3903425 C24.1949729,12.3903425 24.3617758,12.3373021 24.4788304,12.2323188 C24.595885,12.1269696 24.683676,11.9890646 24.7422033,11.8193354 L24.803657,11.5914447 L23.1268494,7.35077482 L24.4261558,7.35077482 L25.0494717,9.22108836 C25.1138518,9.42008124 25.1723791,9.62163468 25.2254195,9.82684608 C25.2777283,10.0316917 25.3333292,10.24239 25.3922223,10.4589411 L25.4269729,10.4589411 C25.4737948,10.2540955 25.5220798,10.0477867 25.571828,9.84001473 C25.6215762,9.63224276 25.6727876,9.42593397 25.7254622,9.22108836 L26.2522081,7.35077482 L27.4900608,7.35077482 L25.9800561,11.7494684 C25.8747069,12.0245468 25.7649682,12.265972 25.6512057,12.4733781 C25.5367116,12.6815159 25.4050252,12.8538057 25.2561463,12.9913449 C25.1065359,13.1288841 24.9364409,13.2331359 24.7465929,13.3033686 C24.5563791,13.3732356 24.3325121,13.4087178 24.0749919,13.4087178" id="Fill-79" fill="#7FDB65"></path>
                            <polygon id="Fill-80" fill="#7FDB65" points="30.0270736 11.7054632 31.317601 11.7054632 31.317601 5.98149169 30.0270736 5.98149169"></polygon>
                            <path d="M32.8976922,8.61514774 L32.616761,8.05328551 C32.880134,7.91903848 33.0776637,7.76540428 33.2097159,7.5923829 C33.3410366,7.41972732 33.4072456,7.20207886 33.4072456,6.93834014 C33.3896874,6.94455867 33.3629843,6.94711924 33.3282337,6.94711924 C33.1405805,6.94711924 32.9814594,6.89005511 32.8494071,6.77629264 C32.7180865,6.66179857 32.6518774,6.505238 32.6518774,6.30624513 C32.6518774,6.08384133 32.7147943,5.90862518 32.8409938,5.77949929 C32.9664618,5.65073919 33.1288751,5.58672494 33.3282337,5.58672494 C33.5970936,5.58672494 33.802305,5.68585558 33.9424048,5.88484846 C34.0828703,6.08384133 34.1534689,6.36769881 34.1534689,6.7364209 C34.1534689,7.15233064 34.0492171,7.51776057 33.8414451,7.83380808 C33.6336732,8.15022138 33.3190888,8.41030214 32.8976922,8.61514774" id="Fill-81" fill="#7FDB65"></path>
                            <path d="M35.1624798,11.7054632 L35.1624798,7.35103088 L36.2163373,7.35103088 L36.3037625,7.91289311 L36.3392447,7.91289311 C36.5203135,7.73182423 36.7134537,7.57489786 36.9186651,7.4432114 C37.1231449,7.31152494 37.3689596,7.24568171 37.6557435,7.24568171 C37.9659382,7.24568171 38.2165083,7.30859857 38.4063563,7.4344323 C38.5965701,7.56026603 38.7476437,7.74023753 38.8584798,7.97434679 C39.0519857,7.77535392 39.2550024,7.60416152 39.4686271,7.4607696 C39.6822518,7.31737767 39.9353824,7.24568171 40.2283848,7.24568171 C40.6962375,7.24568171 41.0400855,7.40224228 41.2595629,7.71536342 C41.4794062,8.02848456 41.5887791,8.45719715 41.5887791,9.00150119 L41.5887791,11.7054632 L40.2982518,11.7054632 L40.2982518,9.16830404 C40.2982518,8.85225653 40.2558195,8.63570546 40.1709549,8.51865083 C40.0860903,8.4015962 39.9500143,8.34306888 39.7627268,8.34306888 C39.5461758,8.34306888 39.2978005,8.48353444 39.0165036,8.76446556 L39.0165036,11.7054632 L37.726342,11.7054632 L37.726342,9.16830404 C37.726342,8.85225653 37.6839097,8.63570546 37.5986793,8.51865083 C37.5141805,8.4015962 37.3781045,8.34306888 37.1904513,8.34306888 C36.9684133,8.34306888 36.7225986,8.48353444 36.4530071,8.76446556 L36.4530071,11.7054632 L35.1624798,11.7054632 Z" id="Fill-82" fill="#7FDB65"></path>
                            <path d="M46.426391,10.7573938 C46.648429,10.7573938 46.8390086,10.6564342 46.9970323,10.454515 C47.1546903,10.2525957 47.2340679,9.92667173 47.2340679,9.47564561 C47.2340679,8.69137957 46.9824005,8.29924656 46.4790656,8.29924656 C46.2211796,8.29924656 45.9728043,8.43093302 45.7328423,8.69394014 L45.7328423,10.4760969 C45.8498969,10.5818119 45.9665857,10.654971 46.0836404,10.6959401 C46.2010608,10.7369093 46.3148233,10.7573938 46.426391,10.7573938 M46.7245145,11.8108855 C46.5317401,11.8108855 46.3371368,11.7626005 46.1410703,11.6656646 C45.9450038,11.5694603 45.7621059,11.4275316 45.5923767,11.2398784 L45.5572603,11.2398784 L45.4519112,11.7055363 L44.4419492,11.7055363 L44.4419492,5.55138907 L45.7328423,5.55138907 L45.7328423,7.06139382 L45.6977259,7.72860523 C45.8674551,7.5764342 46.050353,7.45755059 46.2464195,7.37305178 C46.442486,7.28818717 46.642942,7.24538907 46.8474219,7.24538907 C47.1111606,7.24538907 47.3481962,7.29842945 47.5588945,7.40377862 C47.7695929,7.50912779 47.9495644,7.65690926 48.0984432,7.84712304 C48.2476879,8.03697102 48.3621819,8.26815392 48.4411938,8.54030594 C48.5202057,8.81282375 48.5597116,9.11570261 48.5597116,9.44930831 C48.5597116,9.82388314 48.5081344,10.1574888 48.4060774,10.4501254 C48.3036546,10.742762 48.1661154,10.9900399 47.9930941,11.1915933 C47.8208043,11.3938784 47.624372,11.5475126 47.4052603,11.6528618 C47.1854171,11.7578451 46.9586238,11.8108855 46.7245145,11.8108855" id="Fill-83" fill="#7FDB65"></path>
                            <path d="M50.7806038,11.8108489 C50.3065325,11.8108489 49.9626846,11.6557515 49.7494257,11.3455568 C49.5354352,11.035362 49.4289886,10.6051862 49.4289886,10.0550295 L49.4289886,7.35106746 L50.7191501,7.35106746 L50.7191501,9.8882266 C50.7191501,10.2042741 50.7630456,10.4208252 50.8508366,10.5378798 C50.9389933,10.6549344 51.0761667,10.7134618 51.2634542,10.7134618 C51.4273306,10.7134618 51.5652356,10.675419 51.6760717,10.5989677 C51.7872736,10.523248 51.9072546,10.4007064 52.0363805,10.2306114 L52.0363805,7.35106746 L53.326542,7.35106746 L53.326542,11.7054998 L52.2730504,11.7054998 L52.1764803,11.099742 L52.150143,11.099742 C51.9628556,11.3221458 51.7627653,11.4962646 51.5491406,11.6220983 C51.3351501,11.7479321 51.0790931,11.8108489 50.7806038,11.8108489" id="Fill-84" fill="#7FDB65"></path>
                            <path d="M55.7409767,11.8108489 C55.4541929,11.8108489 55.1597273,11.755248 54.8586774,11.6440461 C54.5572618,11.5328442 54.295352,11.3865259 54.0725824,11.2050912 L54.6520029,10.3974143 C54.8509957,10.5495853 55.0415753,10.6637135 55.22301,10.739799 C55.4040789,10.8158846 55.5884399,10.8539273 55.7760931,10.8539273 C55.9692333,10.8539273 56.1096988,10.8217373 56.197124,10.7573572 C56.284915,10.6929772 56.3288105,10.6022599 56.3288105,10.4852052 C56.3288105,10.4149724 56.3039363,10.3520556 56.2541881,10.2964546 C56.2048057,10.2408537 56.1371335,10.1896423 56.0526347,10.1424546 C55.9674043,10.0963644 55.8722974,10.0535663 55.7669482,10.0155235 C55.661599,9.97748076 55.5533235,9.93504846 55.4424874,9.8882266 C55.3075088,9.83555202 55.172896,9.77409834 55.0382831,9.70386556 C54.9036703,9.63363278 54.7807629,9.54767078 54.669561,9.44488219 C54.5587249,9.34245938 54.4680076,9.22247838 54.397409,9.08493919 C54.327542,8.9474 54.2920599,8.78791306 54.2920599,8.60647838 C54.2920599,8.40748551 54.3315658,8.22312447 54.4105777,8.05339525 C54.4895895,7.88366603 54.6026204,7.74027411 54.7485729,7.62321948 C54.8948912,7.50616485 55.0704732,7.41398432 55.2756846,7.34667791 C55.4801644,7.2793715 55.7084209,7.24571829 55.9604542,7.24571829 C56.2940599,7.24571829 56.5866964,7.30278242 56.8383639,7.41691069 C57.0900314,7.53103895 57.309143,7.65797007 57.4967962,7.79880143 L56.9173758,8.571362 C56.7589862,8.45430736 56.6038888,8.36359002 56.4517178,8.29920998 C56.2995468,8.23482993 56.1473758,8.2026399 55.9952048,8.2026399 C55.6674518,8.2026399 55.5039411,8.31676817 55.5039411,8.5450247 C55.5039411,8.61525748 55.5269862,8.67524798 55.5741739,8.7246304 C55.6209957,8.77474442 55.6839126,8.82010309 55.7629245,8.86107221 C55.8415705,8.90204133 55.9322879,8.94154727 56.0350765,8.97959002 C56.1371335,9.01763278 56.2439458,9.05713872 56.3555135,9.09810784 C56.4956133,9.15078242 56.6346157,9.21113872 56.7721549,9.27807933 C56.9096941,9.34538575 57.0355278,9.42878717 57.1500219,9.52828361 C57.2637843,9.62778005 57.3563306,9.74922423 57.4261976,9.89261615 C57.4967962,10.0360081 57.5319126,10.2072005 57.5319126,10.4061933 C57.5319126,10.6051862 57.493504,10.7895473 57.4177843,10.9592765 C57.341333,11.1290057 57.2272048,11.2767872 57.0750337,11.4026209 C56.9228627,11.5288204 56.7359411,11.6279511 56.5131715,11.7011102 C56.2907677,11.7739036 56.0336133,11.8108489 55.7409767,11.8108489" id="Fill-85" fill="#7FDB65"></path>
                            <path d="M58.8309629,13.4087178 C58.6963501,13.4087178 58.5822219,13.4010361 58.4885781,13.3864043 C58.3949344,13.3717724 58.3045829,13.3501905 58.2164261,13.3209268 L58.4446827,12.3373021 C58.4856518,12.3493734 58.5328394,12.3610789 58.5851482,12.3727843 C58.6378228,12.384124 58.6872052,12.3903425 58.7343929,12.3903425 C58.9509439,12.3903425 59.1177468,12.3373021 59.2348014,12.2323188 C59.3518561,12.1269696 59.439647,11.9890646 59.4981743,11.8193354 L59.559628,11.5914447 L57.8828204,7.35077482 L59.1821268,7.35077482 L59.8054428,9.22108836 C59.8698228,9.42008124 59.9283501,9.62163468 59.9813905,9.82684608 C60.0336993,10.0316917 60.0893002,10.24239 60.1481933,10.4589411 L60.1829439,10.4589411 C60.2297658,10.2540955 60.2780508,10.0477867 60.327799,9.84001473 C60.3775473,9.63224276 60.4287587,9.42593397 60.4814333,9.22108836 L61.0081791,7.35077482 L62.2460318,7.35077482 L60.7360271,11.7494684 C60.6306779,12.0245468 60.5209392,12.265972 60.4071767,12.4733781 C60.2926827,12.6815159 60.1609962,12.8538057 60.0121173,12.9913449 C59.8625069,13.1288841 59.6924119,13.2331359 59.5025639,13.3033686 C59.3123501,13.3732356 59.0884831,13.4087178 58.8309629,13.4087178" id="Fill-86" fill="#7FDB65"></path>
                        </g>
                        <g id="Group-65" transform="translate(142.026128, 81.669834)">
                            <path d="M10.608076,14.631829 L4.02375297,14.631829 C3.21571021,14.631829 2.56057007,13.9766888 2.56057007,13.1686461 L2.56057007,1.4631829 C2.56057007,0.655140143 3.21571021,4.17443857e-13 4.02375297,4.17443857e-13 L10.608076,4.17443857e-13 C11.4161188,4.17443857e-13 12.0712589,0.655140143 12.0712589,1.4631829 L12.0712589,13.1686461 C12.0712589,13.9766888 11.4161188,14.631829 10.608076,14.631829" id="Fill-87" fill="#CCCCCC"></path>
                            <path d="M12.0712589,1.4631829 C12.0712589,1.18481235 11.9893207,0.927292162 11.854342,0.705985748 L2.56057007,10.0001235 L2.56057007,13.1035344 L12.0712589,3.59284561 L12.0712589,1.4631829 Z" id="Fill-88" fill="#EEEEEE"></path>
                            <path d="M10.608076,3.94351218e-13 L9.51068884,3.94351218e-13 L2.56057007,6.95011876 L2.56057007,8.59071259 L11.0697102,0.0815724466 C10.9237577,0.0329216152 10.7704893,3.94351218e-13 10.608076,3.94351218e-13" id="Fill-89" fill="#EEEEEE"></path>
                            <path d="M10.608076,14.631829 L4.02375297,14.631829 C3.21571021,14.631829 2.56057007,13.9766888 2.56057007,13.1686461 L2.56057007,1.4631829 C2.56057007,0.655140143 3.21571021,4.17443857e-13 4.02375297,4.17443857e-13 L10.608076,4.17443857e-13 C11.4161188,4.17443857e-13 12.0712589,0.655140143 12.0712589,1.4631829 L12.0712589,13.1686461 C12.0712589,13.9766888 11.4161188,14.631829 10.608076,14.631829 Z" id="Stroke-90" stroke="#666666" stroke-width="2" stroke-linecap="round" stroke-linejoin="round"></path>
                            <path d="M2.56057007,12.0712589 L5.01820807e-14,12.0712589 L5.01820807e-14,3.65795724 L0.731591449,3.65795724 C1.74155344,3.65795724 2.56057007,4.47660808 2.56057007,5.48693587 L2.56057007,12.0712589 Z" id="Fill-91" fill="#FFFFFF"></path>
                            <path d="M2.56057007,12.0712589 L5.01820807e-14,12.0712589 L5.01820807e-14,3.65795724 L0.731591449,3.65795724 C1.74155344,3.65795724 2.56057007,4.47660808 2.56057007,5.48693587 L2.56057007,12.0712589 Z" id="Stroke-92" stroke="#666666" stroke-width="2" stroke-linecap="round" stroke-linejoin="round"></path>
                            <g id="Group-95" transform="translate(0.000000, 8.413302)">
                                <path d="M0,1.09738717 L0,5.12114014 C0,7.14142993 1.63766746,8.77909739 3.65795724,8.77909739 L4.75534442,8.77909739 L5.85273159,8.77909739 L10.9738717,8.77909739 C11.5799952,8.77909739 12.0712589,8.28783373 12.0712589,7.68171021 C12.0712589,7.0755867 11.5799952,6.58432304 10.9738717,6.58432304 C11.5799952,6.58432304 12.0712589,6.09305938 12.0712589,5.48693587 C12.0712589,4.88081235 11.5799952,4.38954869 10.9738717,4.38954869 C11.5799952,4.38954869 12.0712589,3.89828504 12.0712589,3.29216152 C12.0712589,2.686038 11.5799952,2.19477435 10.9738717,2.19477435 C11.5799952,2.19477435 12.0712589,1.70351069 12.0712589,1.09738717 C12.0712589,0.491263658 11.5799952,0 10.9738717,0 L5.85273159,0 L4.75534442,0 L3.65795724,0" id="Fill-93" fill="#FFFFFF"></path>
                                <path d="M0,1.09738717 L0,5.12114014 C0,7.14142993 1.63766746,8.77909739 3.65795724,8.77909739 L4.75534442,8.77909739 L5.85273159,8.77909739 L10.9738717,8.77909739 C11.5799952,8.77909739 12.0712589,8.28783373 12.0712589,7.68171021 C12.0712589,7.0755867 11.5799952,6.58432304 10.9738717,6.58432304 C11.5799952,6.58432304 12.0712589,6.09305938 12.0712589,5.48693587 C12.0712589,4.88081235 11.5799952,4.38954869 10.9738717,4.38954869 C11.5799952,4.38954869 12.0712589,3.89828504 12.0712589,3.29216152 C12.0712589,2.686038 11.5799952,2.19477435 10.9738717,2.19477435 C11.5799952,2.19477435 12.0712589,1.70351069 12.0712589,1.09738717 C12.0712589,0.491263658 11.5799952,0 10.9738717,0 L5.85273159,0 L4.75534442,0 L3.65795724,0" id="Stroke-94" stroke="#666666" stroke-width="2" stroke-linecap="round" stroke-linejoin="round"></path>
                            </g>
                            <line x1="3.65795724" y1="8.41330166" x2="2.19477435" y2="8.41330166" id="Stroke-96" stroke="#666666" stroke-width="2" stroke-linecap="round" stroke-linejoin="round"></line>
                        </g>
                        <g id="Group-64" transform="translate(61.916755, 96.301663)">
                            <path d="M25.9716062,10.2422803 C25.9716062,4.5856152 21.385991,-5.32907052e-14 15.7293259,-5.32907052e-14 C10.0726608,-5.32907052e-14 5.48704561,4.5856152 5.48704561,10.2422803 C5.48704561,15.8989454 10.0726608,20.4845606 15.7293259,20.4845606 C21.385991,20.4845606 25.9716062,15.8989454 25.9716062,10.2422803" id="Fill-97" fill="#FFFFFF"></path>
                            <path d="M0.000109738717,35.0349268 C4.56121663,37.8643568 9.94975344,39.506048 15.7282285,39.506048 C21.5074352,39.506048 26.8970694,37.863991 31.458542,35.0334637 C30.7152451,26.9051169 24.0036252,20.5234447 15.8017534,20.4848541 C7.5497677,20.4455302 0.749259382,26.8422 0.000109738717,35.0349268" id="Fill-98" fill="#EEEEEE"></path>
                            <path d="M31.458542,35.0335002 C30.9475254,29.4456048 27.6154922,24.6825786 22.9175777,22.2390632" id="Stroke-99" stroke="#666666" stroke-width="2.19477435" stroke-linecap="round" stroke-linejoin="round"></path>
                            <path d="M8.54352494,22.2370879 C3.84890261,24.6780428 0.512114014,29.4374109 -1.50990331e-14,35.0348171" id="Stroke-100" stroke="#666666" stroke-width="2.19477435" stroke-linecap="round" stroke-linejoin="round"></path>
                            <path d="M25.9716062,10.2422803 C25.9716062,4.5856152 21.385991,-5.32907052e-14 15.7293259,-5.32907052e-14 C10.0726608,-5.32907052e-14 5.48704561,4.5856152 5.48704561,10.2422803 C5.48704561,15.8989454 10.0726608,20.4845606 15.7293259,20.4845606 C21.385991,20.4845606 25.9716062,15.8989454 25.9716062,10.2422803 Z" id="Stroke-101" stroke="#666666" stroke-width="2.19477435" stroke-linecap="round" stroke-linejoin="round"></path>
                            <path d="M6.28341948,6.27712779 C7.84024608,7.23222043 9.67178527,7.78420618 11.6324504,7.78420618 C15.8829967,7.78420618 19.5285169,5.19473824 21.0783933,1.50715154 C19.521201,0.551693112 17.6900276,7.31591447e-05 15.7293625,7.31591447e-05 C11.4788162,7.31591447e-05 7.83329596,2.58954109 6.28341948,6.27712779" id="Fill-102" fill="#CCCCCC"></path>
                            <path d="M6.28341948,6.27712779 C7.84024608,7.23222043 9.67178527,7.78420618 11.6324504,7.78420618 C15.8829967,7.78420618 19.5285169,5.19473824 21.0783933,1.50715154 C19.521201,0.551693112 17.6900276,7.31591447e-05 15.7293625,7.31591447e-05 C11.4788162,7.31591447e-05 7.83329596,2.58954109 6.28341948,6.27712779 Z" id="Stroke-103" stroke="#666666" stroke-width="2.19477435" stroke-linecap="round" stroke-linejoin="round"></path>
                            <path d="M10.8762043,12.0723197 C11.4578195,14.1818637 13.3665416,15.7291796 15.6315487,15.7291796 C17.8965558,15.7291796 19.8052779,14.1814979 20.3868931,12.0712223" id="Stroke-104" stroke="#666666" stroke-width="2.19477435" stroke-linecap="round" stroke-linejoin="round"></path>
                        </g>
                        <g id="Group-38" transform="translate(4.121140, 95.935867)">
                            <path d="M4.38954869,19.3871734 L59.6247031,19.3871734 L55.9667458,14.2660333 L55.9667458,4.38954869 C55.9667458,1.96542043 54.0013254,3.48165941e-13 51.5771971,3.48165941e-13 L4.38954869,3.48165941e-13 C1.96542043,3.48165941e-13 1.77635684e-14,1.96542043 1.77635684e-14,4.38954869 L1.77635684e-14,14.9976247 C1.77635684e-14,17.421753 1.96542043,19.3871734 4.38954869,19.3871734" id="Fill-105" fill="#FFFFFF"></path>
                            <path d="M4.38954869,19.3871734 L59.6247031,19.3871734 L55.9667458,14.2660333 L55.9667458,4.38954869 C55.9667458,1.96542043 54.0013254,3.48165941e-13 51.5771971,3.48165941e-13 L4.38954869,3.48165941e-13 C1.96542043,3.48165941e-13 1.77635684e-14,1.96542043 1.77635684e-14,4.38954869 L1.77635684e-14,14.9976247 C1.77635684e-14,17.421753 1.96542043,19.3871734 4.38954869,19.3871734 Z" id="Stroke-106" stroke="#7FDB65" stroke-width="2" stroke-linecap="round" stroke-linejoin="round"></path>
                            <path d="M8.97520048,12.4370546 L8.97520048,10.400304 L7.24535249,6.71308314 L8.63244988,6.71308314 L9.14200333,8.02994774 C9.22394157,8.24649881 9.30149026,8.45573397 9.37464941,8.65765321 C9.44780855,8.85957245 9.52535724,9.07173397 9.60729549,9.29413777 L9.64241188,9.29413777 C9.72435012,9.07173397 9.80482518,8.85957245 9.88347126,8.65765321 C9.96284893,8.45573397 10.043324,8.24649881 10.1252622,8.02994774 L10.643229,6.71308314 L11.99521,6.71308314 L10.2657278,10.400304 L10.2657278,12.4370546 L8.97520048,12.4370546 Z" id="Fill-107" fill="#7FDB65"></path>
                            <path d="M12.9961002,9.78576722 L14.5675587,9.78576722 C14.5675587,9.53995249 14.5119577,9.34095962 14.4007558,9.1887886 C14.2895539,9.03661758 14.1022665,8.96053207 13.8388936,8.96053207 C13.634048,8.96053207 13.4540765,9.02783848 13.2989791,9.16245131 C13.1438817,9.29706413 13.0429221,9.5048361 12.9961002,9.78576722 M13.961801,12.5424038 C13.6516062,12.5424038 13.361896,12.4911924 13.0926703,12.3887696 C12.8230789,12.2863468 12.5893354,12.1374679 12.3903425,11.9410356 C12.1913496,11.7449691 12.0362523,11.5064703 11.9250504,11.225905 C11.8138485,10.9446081 11.7582475,10.6227078 11.7582475,10.2598385 C11.7582475,9.90867458 11.816409,9.59152969 11.9338295,9.30730641 C12.0508841,9.02344893 12.2045183,8.78385273 12.3943663,8.58742043 C12.5849458,8.39135392 12.8029601,8.24064608 13.0487748,8.13529691 C13.2945895,8.02994774 13.5491834,7.97727316 13.8125563,7.97727316 C14.1227511,7.97727316 14.3930741,8.02994774 14.6246228,8.13529691 C14.8558057,8.24064608 15.0489458,8.38696437 15.2040432,8.57425178 C15.3591406,8.76153919 15.4743663,8.98247981 15.5508176,9.23707363 C15.6265373,9.49166746 15.6649458,9.76820903 15.6649458,10.0666983 C15.6649458,10.183753 15.6590931,10.2949549 15.6473876,10.400304 C15.6356822,10.5056532 15.6239767,10.5846651 15.6122713,10.6373397 L13.0048793,10.6373397 C13.0634067,10.9533872 13.1936299,11.1860333 13.3955492,11.3352779 C13.5974684,11.4848884 13.8443805,11.5591449 14.1373829,11.5591449 C14.4475777,11.5591449 14.7606988,11.4625748 15.0763805,11.2694347 L15.5069221,12.0507743 C15.2845183,12.2029454 15.0372404,12.3232922 14.7650884,12.4107173 C14.4929363,12.4985083 14.2251739,12.5424038 13.961801,12.5424038" id="Fill-108" fill="#7FDB65"></path>
                            <path d="M18.000076,11.5415135 C18.1463943,11.5415135 18.272228,11.5093235 18.3775772,11.4449435 C18.4829264,11.3809292 18.5941283,11.2902119 18.7111829,11.1727914 L18.7111829,10.40901 C18.2546698,10.47339 17.9386223,10.5670337 17.7634062,10.6899411 C17.5874584,10.8128485 17.4996675,10.9591667 17.4996675,11.128896 C17.4996675,11.2693615 17.5450261,11.3732475 17.6357435,11.4409197 C17.7264608,11.5078603 17.847905,11.5415135 18.000076,11.5415135 M17.5611211,12.5423306 C17.3621283,12.5423306 17.1821568,12.5086774 17.0212067,12.441371 C16.8602565,12.3740646 16.7241805,12.2807867 16.6129786,12.1604399 C16.5017767,12.0404589 16.4154489,11.9014565 16.3539952,11.7434328 C16.2925416,11.585409 16.2618147,11.4127534 16.2618147,11.2258318 C16.2618147,10.7693188 16.4549549,10.4119363 16.8412352,10.1544162 C17.2278812,9.89689596 17.8508314,9.72424038 18.7111829,9.63644941 C18.6994774,9.44367506 18.6424133,9.29004086 18.5403563,9.17554679 C18.4375677,9.06178432 18.2667411,9.00435439 18.0264133,9.00435439 C17.8391259,9.00435439 17.6533017,9.03947078 17.4689406,9.11006936 C17.2845796,9.17993634 17.0870499,9.27687221 16.8767173,9.39977957 L16.4110594,8.54784133 C16.6919905,8.37847791 16.9864561,8.24093872 17.2933587,8.13522375 C17.6006271,8.02987458 17.9269169,7.9772 18.272228,7.9772 C18.8340903,7.9772 19.2628029,8.13668694 19.5583658,8.45566081 C19.8539287,8.77500048 20.002076,9.27101948 20.002076,9.94371781 L20.002076,12.4369815 L18.9482185,12.4369815 L18.8607933,11.9896133 L18.8253112,11.9896133 C18.6380238,12.1534898 18.4419572,12.2862736 18.2371116,12.3886964 C18.032266,12.4911192 17.8073017,12.5423306 17.5611211,12.5423306" id="Fill-109" fill="#7FDB65"></path>
                            <path d="M21.0900622,12.4370546 L21.0900622,6.28290736 L22.3805895,6.28290736 L22.3805895,7.79291211 L22.3191359,8.57425178 C22.4833781,8.42793349 22.6732261,8.29185748 22.890143,8.16602375 C23.1063283,8.04019002 23.3642143,7.97727316 23.6623378,7.97727316 C24.136409,7.97727316 24.4806228,8.13237055 24.6942475,8.44256532 C24.9078722,8.75312589 25.0146846,9.18293587 25.0146846,9.73309264 L25.0146846,12.4370546 L23.7237914,12.4370546 L23.7237914,9.89989549 C23.7237914,9.58384798 23.6813591,9.36729691 23.5968603,9.25024228 C23.5116299,9.13318765 23.3755539,9.07466033 23.1882665,9.07466033 C23.02439,9.07466033 22.8839245,9.1112399 22.7668698,9.18439905 C22.650181,9.25792399 22.5210551,9.36144418 22.3805895,9.49605701 L22.3805895,12.4370546 L21.0900622,12.4370546 Z" id="Fill-110" fill="#7FDB65"></path>
                            <polygon id="Fill-111" fill="#7FDB65" points="27.9639857 12.4370546 29.2545131 12.4370546 29.2545131 6.71308314 27.9639857 6.71308314"></polygon>
                            <path d="M34.1536884,12.5424404 C33.8493463,12.5424404 33.566952,12.4908632 33.3065055,12.3888062 C33.0460589,12.2863834 32.8192656,12.1386019 32.6261254,11.9454618 C32.4329853,11.7523216 32.2808143,11.5138228 32.1696124,11.2299653 C32.0580447,10.9461078 32.0028095,10.6227444 32.0028095,10.2598751 C32.0028095,9.8970057 32.0642632,9.57364228 32.1871705,9.2897848 C32.3100779,9.00592732 32.4754176,8.7674285 32.6828238,8.57428836 C32.8909615,8.38114822 33.1323867,8.23336675 33.4074651,8.13057815 C33.6825435,8.02852114 33.9693273,7.97730974 34.2678166,7.97730974 C34.5370423,7.97730974 34.7755411,8.02120523 34.9833131,8.1089962 C35.191085,8.19678717 35.3769093,8.30798907 35.5407857,8.4426019 L34.935028,9.27661615 C34.7298166,9.10688694 34.5341159,9.02202233 34.3468285,9.02202233 C34.030781,9.02202233 33.7816741,9.13322423 33.6006052,9.35562803 C33.4191705,9.57803183 33.3284532,9.87944751 33.3284532,10.2598751 C33.3284532,10.6403026 33.4206337,10.9417183 33.6049948,11.1637563 C33.7893558,11.3865259 34.0220019,11.4977278 34.302933,11.4977278 C34.4433986,11.4977278 34.5794746,11.467001 34.7107952,11.4055473 C34.8428475,11.3440936 34.9672181,11.2694713 35.0842727,11.1816803 L35.5934603,12.0244736 C35.3769093,12.211761 35.1424342,12.3449107 34.8911325,12.4239226 C34.6394651,12.5029344 34.3932846,12.5424404 34.1536884,12.5424404" id="Fill-112" fill="#7FDB65"></path>
                            <path d="M37.8055734,11.5415135 C37.9518917,11.5415135 38.0777254,11.5093235 38.1830746,11.4449435 C38.2884238,11.3809292 38.3996257,11.2902119 38.5166803,11.1727914 L38.5166803,10.40901 C38.0601672,10.47339 37.7441197,10.5670337 37.5689036,10.6899411 C37.3929558,10.8128485 37.3051648,10.9591667 37.3051648,11.128896 C37.3051648,11.2693615 37.3505235,11.3732475 37.4412409,11.4409197 C37.5319582,11.5078603 37.6534024,11.5415135 37.8055734,11.5415135 M37.3666185,12.5423306 C37.1676257,12.5423306 36.9876542,12.5086774 36.826704,12.441371 C36.6657539,12.3740646 36.5296779,12.2807867 36.418476,12.1604399 C36.3072741,12.0404589 36.2209463,11.9014565 36.1594926,11.7434328 C36.098039,11.585409 36.0673121,11.4127534 36.0673121,11.2258318 C36.0673121,10.7693188 36.2604523,10.4119363 36.6467325,10.1544162 C37.0333786,9.89689596 37.6563287,9.72424038 38.5166803,9.63644941 C38.5049748,9.44367506 38.4479107,9.29004086 38.3458537,9.17554679 C38.2430651,9.06178432 38.0722385,9.00435439 37.8319107,9.00435439 C37.6446233,9.00435439 37.458799,9.03947078 37.274438,9.11006936 C37.090077,9.17993634 36.8925473,9.27687221 36.6822147,9.39977957 L36.2165568,8.54784133 C36.4974879,8.37847791 36.7919534,8.24093872 37.0988561,8.13522375 C37.4061245,8.02987458 37.7324143,7.9772 38.0777254,7.9772 C38.6395876,7.9772 39.0683002,8.13668694 39.3638632,8.45566081 C39.6594261,8.77500048 39.8075734,9.27101948 39.8075734,9.94371781 L39.8075734,12.4369815 L38.7537159,12.4369815 L38.6662907,11.9896133 L38.6308086,11.9896133 C38.4435211,12.1534898 38.2474546,12.2862736 38.042609,12.3886964 C37.8377634,12.4911192 37.612799,12.5423306 37.3666185,12.5423306" id="Fill-113" fill="#7FDB65"></path>
                            <path d="M40.895523,12.4370546 L40.895523,8.08262233 L41.9493805,8.08262233 L42.0368057,8.63570546 L42.0722879,8.63570546 C42.2595753,8.46012352 42.4640551,8.30648931 42.6864589,8.17480285 C42.9088627,8.04311639 43.1696751,7.97727316 43.4677986,7.97727316 C43.9418698,7.97727316 44.2860836,8.13237055 44.4997083,8.44256532 C44.713333,8.75312589 44.8201454,9.18293587 44.8201454,9.73309264 L44.8201454,12.4370546 L43.5292523,12.4370546 L43.5292523,9.89989549 C43.5292523,9.58384798 43.48682,9.36729691 43.4023211,9.25024228 C43.3170907,9.13318765 43.1810147,9.07466033 42.9937273,9.07466033 C42.8298508,9.07466033 42.6893853,9.1112399 42.5723306,9.18439905 C42.4556418,9.25792399 42.3265159,9.36144418 42.1860504,9.49605701 L42.1860504,12.4370546 L40.895523,12.4370546 Z" id="Fill-114" fill="#7FDB65"></path>
                            <path d="M46.4174656,10.4091197 L46.2331045,7.72271591 L46.189209,6.55509596 L47.4888812,6.55509596 L47.4449857,7.72271591 L47.2606247,10.4091197 L46.4174656,10.4091197 Z M46.8388622,12.5424404 C46.6164584,12.5424404 46.4306342,12.4648917 46.2813895,12.3097943 C46.1325107,12.1546969 46.0578884,11.96302 46.0578884,11.7347634 C46.0578884,11.5006542 46.1325107,11.3060508 46.2813895,11.1509534 C46.4306342,10.9958561 46.6164584,10.9183074 46.8388622,10.9183074 C47.061266,10.9183074 47.2474561,10.9958561 47.3963349,11.1509534 C47.5455796,11.3060508 47.6202019,11.5006542 47.6202019,11.7347634 C47.6202019,11.96302 47.5455796,12.1546969 47.3963349,12.3097943 C47.2474561,12.4648917 47.061266,12.5424404 46.8388622,12.5424404 L46.8388622,12.5424404 Z" id="Fill-115" fill="#7FDB65"></path>
                        </g>
                        <g id="Group-28" transform="translate(55.332542, 109.104513)">
                            <polygon id="Fill-116" fill="#CCCCCC" points="36.5795724 19.0213777 40.2375297 19.0213777 40.2375297 -2.77111667e-13 36.5795724 -2.77111667e-13"></polygon>
                            <polygon id="Fill-117" fill="#EEEEEE" points="40.2375297 19.0213777 67.672209 19.0213777 67.672209 -2.77111667e-13 40.2375297 -2.77111667e-13"></polygon>
                            <polygon id="Stroke-118" stroke="#666666" stroke-width="2" stroke-linecap="round" stroke-linejoin="round" points="40.2375297 19.0213777 67.672209 19.0213777 67.672209 -2.77111667e-13 40.2375297 -2.77111667e-13"></polygon>
                            <polygon id="Stroke-119" stroke="#666666" stroke-width="2" stroke-linecap="round" stroke-linejoin="round" points="36.5795724 19.0213777 40.2375297 19.0213777 40.2375297 -2.77111667e-13 36.5795724 -2.77111667e-13"></polygon>
                            <path d="M58.5273159,26.7030879 L50.47981,26.7030879 L50.47981,12.4370546 C50.47981,11.0228884 51.6262138,9.87648456 53.04038,9.87648456 L55.9667458,9.87648456 C57.3809121,9.87648456 58.5273159,11.0228884 58.5273159,12.4370546 L58.5273159,26.7030879 Z" id="Fill-120" fill="#EEEEEE"></path>
                            <path d="M65.111639,29.6294537 L43.8954869,29.6294537 L43.8954869,28.1662708 C43.8954869,27.358228 44.5506271,26.7030879 45.3586698,26.7030879 L63.6484561,26.7030879 C64.4564988,26.7030879 65.111639,27.358228 65.111639,28.1662708 L65.111639,29.6294537 Z" id="Fill-121" fill="#EEEEEE"></path>
                            <path d="M58.5273159,26.7030879 L50.47981,26.7030879 L50.47981,12.4370546 C50.47981,11.0228884 51.6262138,9.87648456 53.04038,9.87648456 L55.9667458,9.87648456 C57.3809121,9.87648456 58.5273159,11.0228884 58.5273159,12.4370546 L58.5273159,26.7030879 Z" id="Stroke-122" stroke="#666666" stroke-width="2" stroke-linecap="round" stroke-linejoin="round"></path>
                            <path d="M65.111639,29.6294537 L43.8954869,29.6294537 L43.8954869,28.1662708 C43.8954869,27.358228 44.5506271,26.7030879 45.3586698,26.7030879 L63.6484561,26.7030879 C64.4564988,26.7030879 65.111639,27.358228 65.111639,28.1662708 L65.111639,29.6294537 Z" id="Stroke-123" stroke="#666666" stroke-width="2" stroke-linecap="round" stroke-linejoin="round"></path>
                            <path d="M6.85036627,26.7030879 L4.48915487,26.7030879 C2.61591496,26.7030879 1.09749691,28.2215059 1.09749691,30.0947458 C1.09749691,31.655962 2.36278432,32.9216152 3.92400048,32.9216152 L7.41552067,32.9216152 C8.97673682,32.9216152 10.24239,31.655962 10.24239,30.0947458 C10.24239,28.2215059 8.72360618,26.7030879 6.85036627,26.7030879 Z" id="Stroke-124" stroke="#666666" stroke-width="2" stroke-linecap="round" stroke-linejoin="round"></path>
                            <path d="M6.21852732,28.5320665 L6.21852732,28.5320665 C5.41048456,28.5320665 4.75534442,27.8769264 4.75534442,27.0688836 C4.75534442,26.2608409 5.41048456,25.6057007 6.21852732,25.6057007 C7.02657007,25.6057007 7.68171021,26.2608409 7.68171021,27.0688836 C7.68171021,27.8769264 7.02657007,28.5320665 6.21852732,28.5320665" id="Fill-125" fill="#FFFFFF"></path>
                            <path d="M6.21852732,28.5320665 L6.21852732,28.5320665 C5.41048456,28.5320665 4.75534442,27.8769264 4.75534442,27.0688836 C4.75534442,26.2608409 5.41048456,25.6057007 6.21852732,25.6057007 C7.02657007,25.6057007 7.68171021,26.2608409 7.68171021,27.0688836 C7.68171021,27.8769264 7.02657007,28.5320665 6.21852732,28.5320665 Z" id="Stroke-126" stroke="#666666" stroke-width="2" stroke-linecap="round" stroke-linejoin="round"></path>
                            <path d="M12.0712589,32.9216152 L12.0712589,32.9216152 C11.2632162,32.9216152 10.608076,32.2664751 10.608076,31.4584323 C10.608076,30.6503895 11.2632162,29.9952494 12.0712589,29.9952494 C12.8793017,29.9952494 13.5344418,30.6503895 13.5344418,31.4584323 C13.5344418,32.2664751 12.8793017,32.9216152 12.0712589,32.9216152" id="Fill-127" fill="#FFFFFF"></path>
                            <path d="M12.0712589,32.9216152 L12.0712589,32.9216152 C11.2632162,32.9216152 10.608076,32.2664751 10.608076,31.4584323 C10.608076,30.6503895 11.2632162,29.9952494 12.0712589,29.9952494 C12.8793017,29.9952494 13.5344418,30.6503895 13.5344418,31.4584323 C13.5344418,32.2664751 12.8793017,32.9216152 12.0712589,32.9216152 Z" id="Stroke-128" stroke="#666666" stroke-width="2" stroke-linecap="round" stroke-linejoin="round"></path>
                            <path d="M3.65795724,29.263658 L3.65795724,29.263658 C2.84991449,29.263658 2.19477435,28.6085178 2.19477435,27.8004751 C2.19477435,26.9924323 2.84991449,26.3372922 3.65795724,26.3372922 C4.466,26.3372922 5.12114014,26.9924323 5.12114014,27.8004751 C5.12114014,28.6085178 4.466,29.263658 3.65795724,29.263658" id="Fill-129" fill="#FFFFFF"></path>
                            <path d="M3.65795724,29.263658 L3.65795724,29.263658 C2.84991449,29.263658 2.19477435,28.6085178 2.19477435,27.8004751 C2.19477435,26.9924323 2.84991449,26.3372922 3.65795724,26.3372922 C4.466,26.3372922 5.12114014,26.9924323 5.12114014,27.8004751 C5.12114014,28.6085178 4.466,29.263658 3.65795724,29.263658 Z" id="Stroke-130" stroke="#666666" stroke-width="2" stroke-linecap="round" stroke-linejoin="round"></path>
                            <path d="M1.4631829,30.7268409 L1.4631829,30.7268409 C0.655140143,30.7268409 -7.54951657e-15,30.0717007 -7.54951657e-15,29.263658 C-7.54951657e-15,28.4556152 0.655140143,27.8004751 1.4631829,27.8004751 C2.27122565,27.8004751 2.9263658,28.4556152 2.9263658,29.263658 C2.9263658,30.0717007 2.27122565,30.7268409 1.4631829,30.7268409" id="Fill-131" fill="#FFFFFF"></path>
                            <path d="M1.4631829,30.7268409 L1.4631829,30.7268409 C0.655140143,30.7268409 -7.54951657e-15,30.0717007 -7.54951657e-15,29.263658 C-7.54951657e-15,28.4556152 0.655140143,27.8004751 1.4631829,27.8004751 C2.27122565,27.8004751 2.9263658,28.4556152 2.9263658,29.263658 C2.9263658,30.0717007 2.27122565,30.7268409 1.4631829,30.7268409 Z" id="Stroke-132" stroke="#666666" stroke-width="2" stroke-linecap="round" stroke-linejoin="round"></path>
                            <path d="M6.21852732,28.5320665 L5.12114014,28.5320665 C2.69701188,28.5320665 0.731591449,30.4974869 0.731591449,32.9216152 L10.608076,32.9216152 C10.608076,30.4974869 8.64265558,28.5320665 6.21852732,28.5320665" id="Fill-133" fill="#FFFFFF"></path>
                            <path d="M6.21852732,28.5320665 L5.12114014,28.5320665 C2.69701188,28.5320665 0.731591449,30.4974869 0.731591449,32.9216152 L10.608076,32.9216152 C10.608076,30.4974869 8.64265558,28.5320665 6.21852732,28.5320665 Z" id="Stroke-134" stroke="#666666" stroke-width="2" stroke-linecap="round" stroke-linejoin="round"></path>
                            <path d="M5.48693587,32.1900238 L5.48693587,33.6532067 C5.48693587,38.9056675 9.7451639,43.1638955 14.9976247,43.1638955 L75.3539192,43.1638955 C76.7680855,43.1638955 77.9144893,42.0174917 77.9144893,40.6033254 C77.9144893,39.1891591 76.7680855,38.0427553 75.3539192,38.0427553 L44.2612827,38.0427553 C43.4532399,38.0427553 42.7980998,37.3876152 42.7980998,36.5795724 C42.7980998,35.7715297 43.4532399,35.1163895 44.2612827,35.1163895 L52.6745843,35.1163895 C53.4826271,35.1163895 54.1377672,34.4612494 54.1377672,33.6532067 L54.1377672,28.5320665" id="Stroke-135" stroke="#666666" stroke-width="2" stroke-linecap="round" stroke-linejoin="round"></path>
                            <path d="M8.77909739,31.0926366 C7.97105463,31.0926366 7.31591449,30.4374964 7.31591449,29.6294537 L7.31591449,26.7030879 C7.31591449,25.8950451 7.97105463,25.239905 8.77909739,25.239905 C9.58714014,25.239905 10.2422803,25.8950451 10.2422803,26.7030879 L10.2422803,29.6294537 C10.2422803,30.4374964 9.58714014,31.0926366 8.77909739,31.0926366" id="Fill-136" fill="#FFFFFF"></path>
                            <path d="M8.77909739,31.0926366 C7.97105463,31.0926366 7.31591449,30.4374964 7.31591449,29.6294537 L7.31591449,26.7030879 C7.31591449,25.8950451 7.97105463,25.239905 8.77909739,25.239905 C9.58714014,25.239905 10.2422803,25.8950451 10.2422803,26.7030879 L10.2422803,29.6294537 C10.2422803,30.4374964 9.58714014,31.0926366 8.77909739,31.0926366 Z" id="Stroke-137" stroke="#666666" stroke-width="2" stroke-linecap="round" stroke-linejoin="round"></path>
                        </g>
                    </g>
                </g>
            </g>
        </g>
    </g>
</svg>